<svg width="95" height="26" viewBox="0 0 95 26" fill="none" xmlns="http://www.w3.org/2000/svg">
<rect x="0.235352" width="94.5221" height="25.7788" rx="12.8894" fill="#2CD4D9"/>
<path d="M25.0742 16.7683C26.7139 16.7683 27.7489 15.6636 27.7489 14.4657C27.7489 12.9656 26.4464 12.2911 25.3184 11.8375C24.3764 11.4538 23.9462 11.0816 23.9462 10.5351C23.9462 10.0932 24.3067 9.72103 24.9695 9.72103C25.6091 9.72103 26.0859 10.0466 26.586 10.3606C26.7256 10.4537 26.9 10.3606 26.993 10.2211L27.4349 9.55822C27.5163 9.44193 27.4814 9.24423 27.3652 9.17445C27.1326 9.00001 26.2255 8.3953 25.0393 8.3953C23.1903 8.3953 22.4227 9.5931 22.4227 10.6281C22.4227 12.0004 23.5159 12.6981 24.609 13.14C25.5859 13.5354 26.0859 13.9424 26.0859 14.5355C26.0859 15.0356 25.6324 15.431 25.0277 15.431C24.2718 15.431 23.7485 15.0705 23.2717 14.71C23.167 14.6286 22.9693 14.6286 22.8763 14.7914L22.4576 15.5124C22.353 15.6984 22.3995 15.7682 22.5158 15.8613C22.853 16.152 23.6089 16.7683 25.0742 16.7683ZM29.1246 15.0472C29.1246 15.9775 29.427 16.78 30.6248 16.78C31.183 16.78 31.9505 16.5357 32.1366 16.4311C32.2645 16.3613 32.3227 16.2566 32.2878 16.1171L32.1366 15.4077C32.1133 15.2798 31.9854 15.21 31.8342 15.2682C31.6947 15.3147 31.2528 15.4426 31.0202 15.4426C30.7527 15.4426 30.5783 15.3612 30.5783 15.0007V12.5818H31.8342C31.9738 12.5818 32.0901 12.4539 32.0901 12.326V11.5352C32.0901 11.384 31.9738 11.2793 31.8342 11.2793H30.5783V9.7908C30.5783 9.65125 30.4736 9.53496 30.3341 9.53496H29.3805C29.2525 9.53496 29.1246 9.65125 29.1246 9.7908V11.2793H28.6013C28.4618 11.2793 28.3571 11.384 28.3571 11.5352V12.326C28.3571 12.4539 28.4618 12.5818 28.6013 12.5818H29.1246V15.0472ZM32.9233 14.9425C32.9233 16.0938 33.6676 16.78 34.7374 16.78C35.5747 16.78 36.1097 16.4078 36.4237 16.1055L36.5749 16.466C36.6446 16.6172 36.7144 16.652 36.8074 16.652H37.2028C37.3424 16.652 37.4587 16.5357 37.4587 16.3962V13.5005C37.4587 12.0352 37.1098 11.163 35.4352 11.163C34.563 11.163 33.7141 11.384 33.5978 11.4305C33.4815 11.4654 33.3768 11.5584 33.4233 11.7561L33.5396 12.3609C33.5629 12.5237 33.6676 12.6516 33.842 12.5934C34.156 12.5004 34.8654 12.3957 35.3538 12.3957C35.9236 12.3957 36.1213 12.7214 36.0981 13.4075C36.0981 13.4075 35.6096 13.2563 35.0631 13.2563C33.7024 13.2563 32.9233 13.9889 32.9233 14.9425ZM34.3188 14.9425C34.3188 14.4657 34.656 14.175 35.2724 14.175C35.7027 14.175 36.0632 14.3378 36.0632 14.3378V15.1286C35.9934 15.3263 35.5747 15.6984 35.0979 15.6984C34.5979 15.6984 34.3188 15.3961 34.3188 14.9425ZM38.9056 16.3962C38.9056 16.5357 39.0335 16.652 39.1615 16.652H40.0569C40.2313 16.652 40.3593 16.5939 40.3593 16.3962V13.047C40.4523 12.8609 40.8012 12.4888 41.3826 12.4888C41.6268 12.4888 41.7548 12.5353 41.8827 12.5934C42.0106 12.6516 42.1385 12.6051 42.1967 12.4771L42.5456 11.6864C42.6967 11.3375 42.1734 11.163 41.5338 11.163C40.7081 11.163 40.2081 11.7096 40.022 11.9771L39.8243 11.4538C39.7778 11.3375 39.7197 11.2793 39.5917 11.2793H39.1615C39.0335 11.2793 38.9056 11.384 38.9056 11.5352V16.3962ZM43.7634 15.0472C43.7634 15.9775 44.0657 16.78 45.2635 16.78C45.8217 16.78 46.5893 16.5357 46.7753 16.4311C46.9032 16.3613 46.9614 16.2566 46.9265 16.1171L46.7753 15.4077C46.7521 15.2798 46.6241 15.21 46.473 15.2682C46.3334 15.3147 45.8915 15.4426 45.6589 15.4426C45.3914 15.4426 45.217 15.3612 45.217 15.0007V12.5818H46.473C46.6125 12.5818 46.7288 12.4539 46.7288 12.326V11.5352C46.7288 11.384 46.6125 11.2793 46.473 11.2793H45.217V9.7908C45.217 9.65125 45.1123 9.53496 44.9728 9.53496H44.0192C43.8913 9.53496 43.7634 9.65125 43.7634 9.7908V11.2793H43.24C43.1005 11.2793 42.9958 11.384 42.9958 11.5352V12.326C42.9958 12.4539 43.1005 12.5818 43.24 12.5818H43.7634V15.0472ZM50.9721 16.4311C50.9721 16.5474 51.0768 16.652 51.1931 16.652H52.2513C52.3792 16.652 52.4723 16.5474 52.4723 16.4311V11.4305H52.4955L57.2635 16.6869C57.3217 16.7451 57.3798 16.7683 57.4612 16.7683H57.624C57.7403 16.7683 57.845 16.6753 57.845 16.559V8.73254C57.845 8.61625 57.7403 8.51159 57.624 8.51159H56.5541C56.4262 8.51159 56.3332 8.61625 56.3332 8.73254V13.5354H56.3099L51.5652 8.4767C51.507 8.41855 51.4489 8.3953 51.3675 8.3953H51.1931C51.0768 8.3953 50.9721 8.48833 50.9721 8.60462V16.4311ZM59.0447 13.9541C59.0447 15.4891 60.2774 16.78 61.7892 16.78C63.3126 16.78 64.5453 15.4891 64.5453 13.9541C64.5453 12.4423 63.3126 11.163 61.7892 11.163C60.2774 11.163 59.0447 12.4423 59.0447 13.9541ZM60.3937 13.9541C60.3937 13.14 61.01 12.4888 61.7892 12.4888C62.5683 12.4888 63.1963 13.14 63.1963 13.9541C63.1963 14.7797 62.5683 15.4542 61.7892 15.4542C61.01 15.4542 60.3937 14.7797 60.3937 13.9541ZM66.7802 16.6288C66.8035 16.7102 66.8849 16.78 67.0128 16.78H67.0826C67.1756 16.78 67.257 16.7218 67.2919 16.652L68.9781 13.4191H68.9897L70.676 16.652C70.7225 16.7218 70.7806 16.78 70.8969 16.78H70.9435C71.0714 16.78 71.1644 16.7102 71.1877 16.6288L72.839 11.5817C72.8972 11.4189 72.7809 11.2793 72.5948 11.2793H71.7808C71.6412 11.2793 71.5249 11.291 71.4784 11.4421L70.676 14.0006H70.6644L69.2689 11.2793C69.234 11.2096 69.1758 11.163 69.0479 11.163H68.9432C68.8153 11.163 68.7572 11.2212 68.7339 11.2793L67.3268 14.0006H67.3151L66.5011 11.4421C66.4778 11.3375 66.3383 11.2793 66.2685 11.2793H65.3614C65.1754 11.2793 65.0591 11.4189 65.1405 11.5817L66.7802 16.6288Z" fill="#0C022F"/>
</svg>
