<svg width="97" height="19" viewBox="0 0 97 19" fill="none" xmlns="http://www.w3.org/2000/svg">
<path fill-rule="evenodd" clip-rule="evenodd" d="M95.6767 0.687079C95.4641 0.686757 95.2624 0.777597 95.1265 0.934888L94.0494 2.16267C93.9282 2.30665 93.7517 2.39742 93.5599 2.41438C93.3681 2.43135 93.1774 2.37308 93.0309 2.25279C92.7733 2.03877 92.504 1.83601 92.2231 1.64453C91.7431 1.31316 91.2338 1.02294 90.7011 0.777191C90.1794 0.535133 89.6344 0.342729 89.0738 0.202723C88.5151 0.0667959 87.9408 -0.00131791 87.3645 -3.02884e-05C86.1594 -0.00691776 84.965 0.219075 83.8523 0.66455C82.777 1.09394 81.8018 1.72585 80.984 2.52312C80.1478 3.34522 79.4875 4.3173 79.0406 5.3842C78.568 6.53865 78.3334 7.77056 78.3499 9.01123C78.3247 10.3122 78.5633 11.6054 79.0523 12.8185C79.4908 13.8796 80.1525 14.8422 80.9958 15.6458C81.8158 16.4154 82.7923 17.0137 83.864 17.403C84.9856 17.8129 86.1765 18.0191 87.3762 18.0112C87.9453 18.0087 88.5118 17.9368 89.0621 17.7972C89.6217 17.6589 90.1665 17.4704 90.6894 17.234C91.2176 16.9956 91.723 16.7129 92.1996 16.3892C92.4689 16.209 92.7264 16.0175 92.984 15.8261L92.984 15.826C93.1371 15.7069 93.3345 15.6539 93.5295 15.6795C93.7245 15.7051 93.8999 15.807 94.0143 15.9612L95.0914 17.403C95.27 17.649 95.594 17.7549 95.8915 17.6647C96.189 17.5744 96.3912 17.3088 96.3909 17.0087V1.38545C96.3909 1.00411 96.073 0.693229 95.6767 0.687079ZM38.7675 1.23902C39.7037 1.62382 40.5543 2.17833 41.2728 2.87231C41.9729 3.57723 42.529 4.4026 42.9118 5.30535C43.3263 6.24579 43.5374 7.25758 43.5323 8.27907V17.2903C43.5324 17.6717 43.2145 17.9826 42.8182 17.9887H39.7509C39.35 17.9887 39.025 17.676 39.025 17.2903V8.27907C39.0254 7.8621 38.9419 7.449 38.7792 7.06255C38.4395 6.27943 37.7974 5.65357 36.9879 5.31662C36.5779 5.1453 36.1355 5.05711 35.6884 5.05754C34.7803 5.05316 33.9079 5.39782 33.265 6.01499C32.9555 6.31189 32.709 6.66386 32.5392 7.05128C32.3614 7.4499 32.2698 7.87912 32.2699 8.31286V17.3241C32.2699 17.7055 31.952 18.0163 31.5557 18.0225H28.4884C28.1289 17.9775 27.8591 17.6842 27.8562 17.3354V1.67832C27.8531 1.49414 27.927 1.31646 28.0612 1.18516C28.1955 1.05386 28.3789 0.97992 28.5704 0.979945C28.7767 0.981577 28.9725 1.06759 29.1089 1.21649L30.3733 2.60197C31.0956 1.96838 31.933 1.46817 32.8436 1.12638C33.7637 0.793469 34.7406 0.629189 35.7236 0.642022C36.77 0.63849 37.806 0.841683 38.7675 1.23902ZM63.9733 1.00247H76.0435C76.4352 1.01464 76.7462 1.32377 76.746 1.70085V4.62951C76.746 5.01085 76.4281 5.32173 76.0318 5.32788H70.6348C70.2708 5.37343 69.9995 5.67317 70.0026 6.02625V10.3855C69.9963 10.8259 70.0839 11.263 70.2601 11.6696C70.4292 12.0607 70.6757 12.4165 70.986 12.7171C71.2992 13.0175 71.6686 13.2583 72.0748 13.4268C72.4966 13.5998 72.9508 13.688 73.4094 13.6858H76.1021C76.4984 13.692 76.8163 14.0029 76.8162 14.3842V17.3241C76.8163 17.7055 76.4984 18.0163 76.1021 18.0225H73.4094C72.355 18.0301 71.3105 17.8268 70.3421 17.4255C68.4464 16.6413 66.9372 15.1852 66.1274 13.3592C65.7139 12.4224 65.5028 11.4145 65.507 10.3967V6.03752C65.507 5.65182 65.182 5.33914 64.7811 5.33914H63.9733C63.7819 5.33917 63.5984 5.26523 63.4641 5.13393C63.3299 5.00262 63.256 4.82495 63.2592 4.64077V1.70085C63.2591 1.3195 63.577 1.00862 63.9733 1.00247ZM90.5372 12.2328C90.9446 11.7988 91.2695 11.2994 91.4972 10.7572V10.7459C91.9651 9.63717 91.9651 8.39656 91.4972 7.28783C91.2695 6.74564 90.9446 6.24618 90.5372 5.81223C90.134 5.39904 89.6534 5.06274 89.1206 4.821C88.578 4.56455 87.9807 4.43342 87.3762 4.43802C86.7802 4.43483 86.1888 4.53795 85.6318 4.74215C85.0983 4.93673 84.615 5.24033 84.2153 5.63201C83.806 6.03249 83.4837 6.50729 83.267 7.02876C83.0242 7.66318 82.9051 8.33525 82.9157 9.01123C82.8996 9.69031 83.0148 10.3664 83.2553 11.005C83.4632 11.5474 83.7861 12.0422 84.2036 12.458C84.6026 12.8506 85.0861 13.1543 85.6201 13.3479C86.177 13.5524 86.7685 13.6555 87.3645 13.652C87.9689 13.6558 88.566 13.5247 89.1089 13.2691C89.648 13.0123 90.1324 12.6609 90.5372 12.2328ZM4.20745 0.968681H1.11672C0.715845 0.968681 0.390869 1.28135 0.390869 1.66705V17.3241C0.390869 17.7098 0.715845 18.0225 1.11672 18.0225H4.20745C4.60375 18.0163 4.92165 17.7055 4.9216 17.3241V1.66705C4.92474 1.48288 4.85089 1.3052 4.71662 1.1739C4.58235 1.04259 4.3989 0.968656 4.20745 0.968681ZM16.9701 1.36964C17.0863 1.60735 17.0539 1.88765 16.8865 2.09509L10.6816 9.05629C10.4466 9.31839 10.4466 9.70658 10.6816 9.96868L16.9684 16.8623C17.1359 17.0697 17.1682 17.35 17.0521 17.5877C16.936 17.8255 16.691 17.9804 16.4182 17.9887H12.906C12.6934 17.989 12.4917 17.8982 12.3557 17.7409L5.33136 9.92362C5.0912 9.66338 5.0912 9.27148 5.33136 9.01123L12.2738 1.21649C12.4097 1.0592 12.6114 0.968359 12.824 0.968681H16.3362C16.6091 0.977008 16.854 1.13193 16.9701 1.36964ZM23.6416 0.968681C23.4309 0.965558 23.2295 1.05213 23.0914 1.20523L22.9509 1.36292L20.024 4.58445C19.911 4.70936 19.8486 4.86937 19.8484 5.03501V17.3241C19.8453 17.5083 19.9191 17.686 20.0534 17.8173C20.1877 17.9486 20.3711 18.0225 20.5626 18.0225H23.6299C24.0262 18.0163 24.3441 17.7055 24.344 17.3241V1.66705C24.3441 1.28571 24.0262 0.974831 23.6299 0.968681H23.6416ZM58.6699 7.88483C59.3287 8.12889 59.9327 8.49213 60.4494 8.95491C60.9423 9.41307 61.3362 9.96049 61.6084 10.5657C61.9096 11.2099 62.0614 11.9094 62.0533 12.6157C62.0576 13.3399 61.9062 14.057 61.6084 14.7221C61.3316 15.3609 60.9347 15.9452 60.4377 16.4455C59.3924 17.4626 57.9673 18.0345 56.4806 18.0338H46.904C46.7126 18.0338 46.5292 17.9599 46.3949 17.8285C46.2606 17.6972 46.1868 17.5196 46.1899 17.3354V14.3955C46.1868 14.2113 46.2606 14.0336 46.3949 13.9023C46.5292 13.771 46.7126 13.6971 46.904 13.6971H56.6094C56.878 13.6984 57.1346 13.59 57.3154 13.3988C57.4962 13.2077 57.5842 12.9518 57.5577 12.6946C57.509 12.2156 57.0861 11.8529 56.586 11.861H51.7509C50.9982 11.8658 50.2527 11.7201 49.5616 11.433C48.239 10.8591 47.1957 9.81894 46.6465 8.52688C46.3485 7.85792 46.197 7.13703 46.2016 6.40923C46.1933 5.68222 46.3408 4.96136 46.6348 4.29158C47.1875 3.00855 48.237 1.98256 49.5616 1.43051C50.2679 1.13983 51.0295 0.994047 51.7977 1.00247H60.3089C60.7052 1.00862 61.0231 1.3195 61.0231 1.70085V4.59571C61.0231 4.97706 60.7052 5.28794 60.3089 5.29409H51.9031C51.2565 5.29409 50.7323 5.7984 50.7323 6.4205C50.7237 6.70055 50.8239 6.97364 51.0133 7.18645C51.2187 7.39881 51.508 7.51751 51.8094 7.51311H56.4923C57.2356 7.50857 57.9736 7.63453 58.6699 7.88483Z" fill="white"/>
</svg>
