<svg width="96" height="26" viewBox="0 0 96 26" fill="none" xmlns="http://www.w3.org/2000/svg">
<rect x="0.844482" width="94.5221" height="25.7788" rx="12.8894" fill="#2CD4D9"/>
<path d="M27.1075 11.1445C27.0773 10.84 26.9477 10.6035 26.7186 10.4348C26.4896 10.2662 26.1788 10.1819 25.7863 10.1819C25.5195 10.1819 25.2943 10.2197 25.1106 10.2952C24.9268 10.3682 24.7859 10.4701 24.6878 10.6009C24.5921 10.7318 24.5443 10.8803 24.5443 11.0464C24.5393 11.1848 24.5682 11.3056 24.6312 11.4088C24.6966 11.5119 24.7859 11.6013 24.8992 11.6768C25.0124 11.7498 25.1433 11.8139 25.2918 11.8693C25.4402 11.9221 25.5988 11.9674 25.7674 12.0052L26.462 12.1713C26.7992 12.2468 27.1087 12.3474 27.3906 12.4733C27.6724 12.5991 27.9165 12.7539 28.1229 12.9376C28.3293 13.1213 28.4891 13.3377 28.6023 13.5869C28.7181 13.836 28.7772 14.1216 28.7797 14.4437C28.7772 14.9169 28.6564 15.3271 28.4173 15.6744C28.1808 16.0191 27.8385 16.2871 27.3906 16.4784C26.9451 16.6671 26.4079 16.7615 25.7787 16.7615C25.1546 16.7615 24.611 16.6659 24.148 16.4746C23.6874 16.2834 23.3276 16.0002 23.0684 15.6253C22.8117 15.2478 22.677 14.781 22.6645 14.2248H24.2461C24.2637 14.484 24.338 14.7004 24.4688 14.8741C24.6022 15.0452 24.7796 15.1748 25.0011 15.2629C25.2251 15.3485 25.478 15.3912 25.7598 15.3912C26.0367 15.3912 26.277 15.351 26.4808 15.2704C26.6872 15.1899 26.847 15.0779 26.9602 14.9345C27.0735 14.791 27.1301 14.6262 27.1301 14.44C27.1301 14.2663 27.0785 14.1204 26.9753 14.0021C26.8747 13.8838 26.7262 13.7831 26.5299 13.7001C26.3361 13.6171 26.0983 13.5416 25.8165 13.4736L24.9747 13.2622C24.3229 13.1037 23.8082 12.8558 23.4307 12.5186C23.0533 12.1813 22.8658 11.7271 22.8683 11.1558C22.8658 10.6878 22.9903 10.2788 23.242 9.92902C23.4962 9.57921 23.8447 9.30616 24.2876 9.10987C24.7306 8.91358 25.2339 8.81543 25.7976 8.81543C26.3714 8.81543 26.8722 8.91358 27.3 9.10987C27.7303 9.30616 28.065 9.57921 28.3041 9.92902C28.5432 10.2788 28.6665 10.684 28.674 11.1445H27.1075ZM32.933 10.8539V12.0618H29.4413V10.8539H32.933ZM30.234 9.46471H31.8421V14.8703C31.8421 15.0188 31.8647 15.1345 31.91 15.2176C31.9553 15.2981 32.0182 15.3547 32.0988 15.3875C32.1818 15.4202 32.2774 15.4365 32.3857 15.4365C32.4612 15.4365 32.5366 15.4302 32.6121 15.4177C32.6876 15.4026 32.7455 15.3912 32.7858 15.3837L33.0387 16.5803C32.9582 16.6055 32.8449 16.6344 32.699 16.6671C32.553 16.7024 32.3756 16.7238 32.1667 16.7313C31.7792 16.7464 31.4394 16.6948 31.1475 16.5765C30.8581 16.4583 30.6329 16.2746 30.4718 16.0254C30.3107 15.7763 30.2315 15.4617 30.234 15.0817V9.46471ZM35.6339 16.7615C35.264 16.7615 34.9343 16.6973 34.6449 16.569C34.3555 16.4381 34.1265 16.2456 33.9579 15.9914C33.7918 15.7347 33.7087 15.4151 33.7087 15.0326C33.7087 14.7105 33.7679 14.44 33.8862 14.221C34.0044 14.0021 34.1655 13.8259 34.3693 13.6925C34.5732 13.5592 34.8047 13.4585 35.0639 13.3906C35.3256 13.3226 35.5999 13.2748 35.8868 13.2471C36.2241 13.2119 36.4958 13.1792 36.7022 13.149C36.9086 13.1163 37.0583 13.0684 37.1514 13.0055C37.2445 12.9426 37.2911 12.8495 37.2911 12.7262V12.7035C37.2911 12.4645 37.2156 12.2795 37.0646 12.1486C36.9161 12.0178 36.7047 11.9523 36.4304 11.9523C36.141 11.9523 35.9107 12.0165 35.7396 12.1449C35.5685 12.2707 35.4552 12.4292 35.3999 12.6205L33.9126 12.4997C33.9881 12.1474 34.1366 11.8429 34.358 11.5862C34.5795 11.327 34.8651 11.1282 35.2149 10.9898C35.5672 10.8488 35.9749 10.7784 36.438 10.7784C36.7601 10.7784 37.0684 10.8161 37.3628 10.8916C37.6598 10.9671 37.9227 11.0841 38.1518 11.2427C38.3833 11.4012 38.5657 11.6051 38.6991 11.8542C38.8325 12.1008 38.8992 12.3965 38.8992 12.7413V16.652H37.3741V15.848H37.3288C37.2357 16.0292 37.1111 16.189 36.9551 16.3274C36.7991 16.4633 36.6116 16.5702 36.3927 16.6483C36.1737 16.7238 35.9208 16.7615 35.6339 16.7615ZM36.0945 15.6517C36.331 15.6517 36.5399 15.6051 36.7211 15.512C36.9023 15.4164 37.0445 15.2881 37.1476 15.127C37.2508 14.9659 37.3024 14.7835 37.3024 14.5796V13.9643C37.2521 13.9971 37.1829 14.0273 37.0948 14.0549C37.0092 14.0801 36.9123 14.104 36.8041 14.1267C36.6959 14.1468 36.5877 14.1657 36.4795 14.1833C36.3713 14.1984 36.2731 14.2122 36.185 14.2248C35.9963 14.2525 35.8315 14.2965 35.6905 14.3569C35.5496 14.4173 35.4401 14.4991 35.3621 14.6023C35.2841 14.703 35.2451 14.8288 35.2451 14.9798C35.2451 15.1987 35.3244 15.3661 35.4829 15.4818C35.644 15.5951 35.8478 15.6517 36.0945 15.6517ZM40.1468 16.652V10.8539H41.7058V11.8655H41.7662C41.8719 11.5056 42.0493 11.2339 42.2984 11.0501C42.5476 10.8639 42.8345 10.7708 43.1591 10.7708C43.2396 10.7708 43.3265 10.7758 43.4196 10.7859C43.5127 10.796 43.5945 10.8098 43.6649 10.8274V12.2543C43.5894 12.2317 43.485 12.2115 43.3516 12.1939C43.2182 12.1763 43.0962 12.1675 42.9855 12.1675C42.7489 12.1675 42.5375 12.2191 42.3513 12.3223C42.1676 12.4229 42.0216 12.5639 41.9134 12.7451C41.8077 12.9263 41.7549 13.1351 41.7549 13.3717V16.652H40.1468ZM47.8711 10.8539V12.0618H44.3793V10.8539H47.8711ZM45.172 9.46471H46.7801V14.8703C46.7801 15.0188 46.8028 15.1345 46.8481 15.2176C46.8934 15.2981 46.9563 15.3547 47.0368 15.3875C47.1199 15.4202 47.2155 15.4365 47.3237 15.4365C47.3992 15.4365 47.4747 15.4302 47.5502 15.4177C47.6257 15.4026 47.6836 15.3912 47.7238 15.3837L47.9768 16.5803C47.8962 16.6055 47.783 16.6344 47.637 16.6671C47.4911 16.7024 47.3136 16.7238 47.1048 16.7313C46.7172 16.7464 46.3775 16.6948 46.0856 16.5765C45.7962 16.4583 45.5709 16.2746 45.4099 16.0254C45.2488 15.7763 45.1695 15.4617 45.172 15.0817V9.46471ZM57.8754 8.92113V16.652H56.4636L53.1002 11.7862H53.0436V16.652H51.4091V8.92113H52.8435L56.1805 13.7831H56.2484V8.92113H57.8754ZM61.8154 16.7653C61.229 16.7653 60.7219 16.6407 60.2941 16.3916C59.8688 16.1399 59.5404 15.7901 59.3089 15.3422C59.0774 14.8917 58.9616 14.3695 58.9616 13.7756C58.9616 13.1767 59.0774 12.6532 59.3089 12.2053C59.5404 11.7548 59.8688 11.405 60.2941 11.1558C60.7219 10.9042 61.229 10.7784 61.8154 10.7784C62.4018 10.7784 62.9076 10.9042 63.3329 11.1558C63.7607 11.405 64.0904 11.7548 64.3219 12.2053C64.5534 12.6532 64.6692 13.1767 64.6692 13.7756C64.6692 14.3695 64.5534 14.8917 64.3219 15.3422C64.0904 15.7901 63.7607 16.1399 63.3329 16.3916C62.9076 16.6407 62.4018 16.7653 61.8154 16.7653ZM61.8229 15.5196C62.0897 15.5196 62.3124 15.4441 62.4911 15.2931C62.6698 15.1396 62.8044 14.9307 62.895 14.6665C62.9881 14.4022 63.0347 14.1015 63.0347 13.7643C63.0347 13.4271 62.9881 13.1263 62.895 12.8621C62.8044 12.5978 62.6698 12.389 62.4911 12.2355C62.3124 12.0819 62.0897 12.0052 61.8229 12.0052C61.5537 12.0052 61.3272 12.0819 61.1435 12.2355C60.9623 12.389 60.8251 12.5978 60.732 12.8621C60.6414 13.1263 60.5961 13.4271 60.5961 13.7643C60.5961 14.1015 60.6414 14.4022 60.732 14.6665C60.8251 14.9307 60.9623 15.1396 61.1435 15.2931C61.3272 15.4441 61.5537 15.5196 61.8229 15.5196ZM66.7133 16.652L65.1354 10.8539H66.7623L67.6608 14.7495H67.7136L68.6498 10.8539H70.2465L71.1978 14.7269H71.2469L72.1302 10.8539H73.7534L72.1793 16.652H70.4768L69.4802 13.0055H69.4085L68.412 16.652H66.7133Z" fill="#0C022F"/>
</svg>
