<svg width="680" height="22" viewBox="0 0 680 22" fill="none" xmlns="http://www.w3.org/2000/svg">
<path d="M1.5116 16.1393C1.5116 16.3193 1.6556 16.4813 1.8356 16.4813H6.2276C9.7016 16.4813 12.5456 13.6553 12.5456 10.1633C12.5456 6.70726 9.7016 3.88126 6.2276 3.88126H1.8356C1.6556 3.88126 1.5116 4.04326 1.5116 4.22326V16.1393ZM4.3196 13.8173V6.52726H6.2096C8.2436 6.52726 9.5576 8.12926 9.5576 10.1633C9.5576 12.2153 8.2436 13.8173 6.2096 13.8173H4.3196ZM13.655 12.3233C13.655 14.8973 15.527 16.6793 18.011 16.6793C19.325 16.6793 20.369 16.2293 21.089 15.4913C21.269 15.3113 21.233 15.0593 21.107 14.8973L20.189 13.6913C20.063 13.5293 19.847 13.5293 19.667 13.6913C19.307 13.9433 18.623 14.2133 18.083 14.2133C16.949 14.2133 16.355 13.4213 16.355 12.7733H21.485C21.665 12.7733 21.863 12.6293 21.881 12.4133C21.899 12.2873 21.917 11.9993 21.917 11.8733C21.917 9.58726 20.081 7.98526 17.975 7.98526C15.509 7.98526 13.655 9.98326 13.655 12.3233ZM16.661 11.1893C16.769 10.6313 17.219 10.1633 17.903 10.1633C18.605 10.1633 19.073 10.6313 19.109 11.1893H16.661ZM26.1055 16.1933C26.3755 16.3913 27.2215 16.6793 28.0315 16.6793C30.2455 16.6793 32.1355 15.2393 32.1355 12.3053C32.1355 9.92926 30.3895 7.98526 28.0495 7.98526C26.2135 7.98526 25.2415 9.26326 25.2415 9.26326L25.0075 8.57926C24.9355 8.36326 24.7735 8.16526 24.5755 8.16526H23.7655C23.5495 8.16526 23.3695 8.36326 23.3695 8.56126V20.3693C23.3695 20.5853 23.5495 20.7653 23.7655 20.7653H25.7095C25.9255 20.7653 26.1055 20.5853 26.1055 20.3693V16.1933ZM25.8715 12.3233C25.8715 11.3333 26.6095 10.5413 27.6355 10.5413C28.6255 10.5413 29.3995 11.3333 29.3995 12.3233C29.3995 13.3313 28.6255 14.1053 27.6355 14.1053C26.6095 14.1053 25.8715 13.3313 25.8715 12.3233ZM33.723 16.0853C33.723 16.3013 33.903 16.4813 34.119 16.4813H36.063C36.279 16.4813 36.459 16.3013 36.459 16.0853V4.27726C36.459 4.07926 36.279 3.88126 36.063 3.88126H34.119C33.903 3.88126 33.723 4.07926 33.723 4.27726V16.0853ZM38.0003 12.3053C38.0003 14.6813 39.9623 16.6793 42.3383 16.6793C44.7143 16.6793 46.6583 14.6813 46.6583 12.3053C46.6583 9.96526 44.7143 7.98526 42.3383 7.98526C39.9623 7.98526 38.0003 9.96526 38.0003 12.3053ZM40.5923 12.3053C40.5923 11.3513 41.3663 10.5413 42.3383 10.5413C43.2923 10.5413 44.0663 11.3513 44.0663 12.3053C44.0663 13.2773 43.2923 14.1053 42.3383 14.1053C41.3663 14.1053 40.5923 13.2773 40.5923 12.3053ZM49.778 15.8513L48.05 20.2073C47.924 20.4953 48.086 20.7653 48.392 20.7653H50.408C50.552 20.7653 50.696 20.6393 50.75 20.5133L55.664 8.70526C55.79 8.41726 55.628 8.16526 55.304 8.16526H53.252C53.09 8.16526 52.946 8.25526 52.892 8.39926L51.29 12.8093H51.254L50.12 8.39926C50.084 8.25526 49.94 8.16526 49.796 8.16526H47.654C47.348 8.16526 47.222 8.43526 47.312 8.70526L49.778 15.8513ZM63.8161 16.1393C63.8161 16.3193 63.9601 16.4813 64.1581 16.4813H66.3001C66.4801 16.4813 66.6421 16.3193 66.6421 16.1393V10.3973L70.6741 4.40326C70.8181 4.16926 70.6741 3.88126 70.3861 3.88126H68.0461C67.8841 3.88126 67.8121 3.97126 67.7581 4.04326L65.2561 7.73326L62.7541 4.04326C62.7001 3.97126 62.6101 3.88126 62.4661 3.88126H60.1261C59.8381 3.88126 59.6941 4.16926 59.8381 4.40326L63.8161 10.4153V16.1393ZM69.1487 12.3053C69.1487 14.6813 71.1107 16.6793 73.4867 16.6793C75.8627 16.6793 77.8067 14.6813 77.8067 12.3053C77.8067 9.96526 75.8627 7.98526 73.4867 7.98526C71.1107 7.98526 69.1487 9.96526 69.1487 12.3053ZM71.7407 12.3053C71.7407 11.3513 72.5147 10.5413 73.4867 10.5413C74.4407 10.5413 75.2147 11.3513 75.2147 12.3053C75.2147 13.2773 74.4407 14.1053 73.4867 14.1053C72.5147 14.1053 71.7407 13.2773 71.7407 12.3053ZM79.2658 12.7193C79.2658 15.0773 80.0218 16.6793 82.4518 16.6793C83.6938 16.6793 84.5758 15.9413 85.0798 15.4193L85.3678 16.1933C85.4398 16.3373 85.5838 16.4813 85.7638 16.4813H86.5918C86.8078 16.4813 86.9878 16.3013 86.9878 16.0853V8.56126C86.9878 8.32726 86.8078 8.16526 86.5918 8.16526H84.7018C84.5038 8.16526 84.2518 8.21926 84.2518 8.56126V12.8093C84.2518 13.5473 83.9278 14.1053 83.1178 14.1053C82.2718 14.1053 82.0018 13.6013 82.0018 12.6653V8.56126C82.0018 8.32726 81.8218 8.16526 81.6058 8.16526H79.6438C79.4458 8.16526 79.2658 8.32726 79.2658 8.56126V12.7193ZM89.0058 16.0853C89.0058 16.3013 89.1858 16.4813 89.4018 16.4813H91.2918C91.5978 16.4813 91.7418 16.3373 91.7418 16.0853V11.7293C91.7418 11.0273 92.2098 10.5773 92.8398 10.5773C93.0198 10.5773 93.3258 10.6493 93.4698 10.7033C93.7038 10.7933 93.8478 10.6673 93.9378 10.5053L94.7658 8.86726C94.8558 8.70526 94.8558 8.52526 94.7118 8.41726C94.4058 8.18326 93.8478 7.98526 93.0918 7.98526C92.0118 7.98526 91.3818 8.66926 91.0218 9.33526L90.6438 8.41726C90.5898 8.27326 90.4818 8.16526 90.2658 8.16526H89.4018C89.1858 8.16526 89.0058 8.32726 89.0058 8.56126V16.0853ZM100.266 16.1393C100.266 16.3193 100.41 16.4813 100.608 16.4813H102.732C102.912 16.4813 103.074 16.3193 103.074 16.1393V11.9093H104.964C107.322 11.9093 108.978 10.0913 108.978 7.85926C108.978 5.68126 107.322 3.88126 104.946 3.88126H100.608C100.41 3.88126 100.266 4.04326 100.266 4.22326V16.1393ZM103.074 9.28126V6.52726H104.892C105.666 6.52726 106.206 7.10326 106.206 7.85926C106.206 8.66926 105.666 9.28126 104.892 9.28126H103.074ZM112.163 15.8513L110.435 20.2073C110.309 20.4953 110.471 20.7653 110.777 20.7653H112.793C112.937 20.7653 113.081 20.6393 113.135 20.5133L118.049 8.70526C118.175 8.41726 118.013 8.16526 117.689 8.16526H115.637C115.475 8.16526 115.331 8.25526 115.277 8.39926L113.675 12.8093H113.639L112.505 8.39926C112.469 8.25526 112.325 8.16526 112.181 8.16526H110.039C109.733 8.16526 109.607 8.43526 109.697 8.70526L112.163 15.8513ZM119.815 13.7813C119.815 15.6713 120.733 16.6793 122.317 16.6793C123.199 16.6793 124.135 16.4453 124.693 16.2113C124.927 16.1033 125.017 15.9953 124.963 15.7433L124.603 14.1773C124.549 13.9613 124.351 13.8713 124.135 13.9253C123.937 13.9793 123.397 14.1053 123.109 14.1053C122.749 14.1053 122.551 13.9253 122.551 13.5293V10.6313H124.225C124.441 10.6313 124.621 10.4513 124.621 10.2353V8.56126C124.621 8.32726 124.441 8.16526 124.225 8.16526H122.551V5.86126C122.551 5.64526 122.389 5.46526 122.191 5.46526H120.211C119.995 5.46526 119.815 5.64526 119.815 5.86126V8.16526H119.131C118.933 8.16526 118.771 8.32726 118.771 8.56126V10.2353C118.771 10.4513 118.933 10.6313 119.131 10.6313H119.815V13.7813ZM126.36 16.0853C126.36 16.3013 126.54 16.4813 126.756 16.4813H128.646C129.006 16.4813 129.096 16.3553 129.096 16.0853V12.1613C129.096 10.9013 129.654 10.5413 130.32 10.5413C131.22 10.5413 131.562 11.2253 131.562 12.1613V16.0853C131.562 16.3013 131.724 16.4813 131.958 16.4813H133.902C134.1 16.4813 134.298 16.3013 134.298 16.0853V12.1973C134.298 9.89326 133.47 7.98526 130.86 7.98526C130.248 7.98526 129.672 8.18326 129.096 8.57926V4.27726C129.096 4.07926 128.916 3.88126 128.7 3.88126H126.756C126.54 3.88126 126.36 4.07926 126.36 4.27726V16.0853ZM135.735 12.3053C135.735 14.6813 137.697 16.6793 140.073 16.6793C142.449 16.6793 144.393 14.6813 144.393 12.3053C144.393 9.96526 142.449 7.98526 140.073 7.98526C137.697 7.98526 135.735 9.96526 135.735 12.3053ZM138.327 12.3053C138.327 11.3513 139.101 10.5413 140.073 10.5413C141.027 10.5413 141.801 11.3513 141.801 12.3053C141.801 13.2773 141.027 14.1053 140.073 14.1053C139.101 14.1053 138.327 13.2773 138.327 12.3053ZM145.924 16.0853C145.924 16.3013 146.104 16.4813 146.32 16.4813H148.3C148.588 16.4813 148.678 16.2653 148.678 16.0853V11.9633C148.678 11.1173 149.11 10.5413 149.938 10.5413C150.874 10.5413 151.144 11.2793 151.144 12.0713V16.0853C151.144 16.3013 151.306 16.4813 151.54 16.4813H153.502C153.7 16.4813 153.88 16.3013 153.88 16.0853V12.1073C153.88 9.82126 152.998 7.98526 150.406 7.98526C148.894 7.98526 148.264 8.74126 147.814 9.24526L147.508 8.41726C147.418 8.25526 147.256 8.16526 147.13 8.16526H146.32C146.104 8.16526 145.924 8.32726 145.924 8.56126V16.0853ZM159.425 16.4813H161.405C161.765 16.4813 161.963 16.2653 162.053 16.0493L162.701 14.6093H167.597L168.245 16.0313C168.407 16.3733 168.551 16.4813 168.875 16.4813H170.873C171.143 16.4813 171.287 16.2473 171.179 16.0133L165.545 3.89926C165.491 3.79126 165.365 3.70126 165.239 3.70126H165.059C164.933 3.70126 164.807 3.79126 164.753 3.89926L159.119 16.0133C159.011 16.2473 159.155 16.4813 159.425 16.4813ZM163.781 12.1613L165.131 9.19126H165.149L166.517 12.1613H163.781ZM174.852 16.1933C175.122 16.3913 175.968 16.6793 176.778 16.6793C178.992 16.6793 180.882 15.2393 180.882 12.3053C180.882 9.92926 179.136 7.98526 176.796 7.98526C174.96 7.98526 173.988 9.26326 173.988 9.26326L173.754 8.57926C173.682 8.36326 173.52 8.16526 173.322 8.16526H172.512C172.296 8.16526 172.116 8.36326 172.116 8.56126V20.3693C172.116 20.5853 172.296 20.7653 172.512 20.7653H174.456C174.672 20.7653 174.852 20.5853 174.852 20.3693V16.1933ZM174.618 12.3233C174.618 11.3333 175.356 10.5413 176.382 10.5413C177.372 10.5413 178.146 11.3333 178.146 12.3233C178.146 13.3313 177.372 14.1053 176.382 14.1053C175.356 14.1053 174.618 13.3313 174.618 12.3233ZM185.205 16.1933C185.475 16.3913 186.321 16.6793 187.131 16.6793C189.345 16.6793 191.235 15.2393 191.235 12.3053C191.235 9.92926 189.489 7.98526 187.149 7.98526C185.313 7.98526 184.341 9.26326 184.341 9.26326L184.107 8.57926C184.035 8.36326 183.873 8.16526 183.675 8.16526H182.865C182.649 8.16526 182.469 8.36326 182.469 8.56126V20.3693C182.469 20.5853 182.649 20.7653 182.865 20.7653H184.809C185.025 20.7653 185.205 20.5853 185.205 20.3693V16.1933ZM184.971 12.3233C184.971 11.3333 185.709 10.5413 186.735 10.5413C187.725 10.5413 188.499 11.3333 188.499 12.3233C188.499 13.3313 187.725 14.1053 186.735 14.1053C185.709 14.1053 184.971 13.3313 184.971 12.3233ZM192.823 16.0853C192.823 16.3013 193.003 16.4813 193.219 16.4813H195.163C195.379 16.4813 195.559 16.3013 195.559 16.0853V4.27726C195.559 4.07926 195.379 3.88126 195.163 3.88126H193.219C193.003 3.88126 192.823 4.07926 192.823 4.27726V16.0853ZM197.586 16.0853C197.586 16.3013 197.766 16.4813 197.982 16.4813H199.926C200.142 16.4813 200.322 16.3013 200.322 16.0853V8.56126C200.322 8.32726 200.142 8.16526 199.926 8.16526H197.982C197.766 8.16526 197.586 8.32726 197.586 8.56126V16.0853ZM198.936 7.01326C199.8 7.01326 200.502 6.31126 200.502 5.46526C200.502 4.60126 199.8 3.88126 198.936 3.88126C198.072 3.88126 197.388 4.60126 197.388 5.46526C197.388 6.31126 198.072 7.01326 198.936 7.01326ZM201.846 12.3233C201.846 14.8253 203.862 16.6793 206.238 16.6793C207.732 16.6793 208.812 16.1033 209.586 14.9513C209.73 14.7353 209.622 14.5373 209.442 14.3573L208.272 13.3493C208.164 13.2053 207.948 13.2413 207.804 13.4213C207.444 13.7813 207.084 14.1053 206.31 14.1053C205.356 14.1053 204.582 13.3313 204.582 12.3233C204.582 11.3873 205.392 10.5413 206.346 10.5413C206.868 10.5413 207.282 10.8293 207.624 11.1353C207.786 11.2793 208.002 11.2613 208.092 11.1713L209.262 10.0373C209.46 9.87526 209.532 9.64126 209.37 9.44326C208.578 8.50726 207.57 7.98526 206.256 7.98526C203.88 7.98526 201.846 9.87526 201.846 12.3233ZM210.442 13.9433C210.442 15.5993 211.684 16.6793 213.322 16.6793C214.636 16.6793 215.338 16.0853 215.842 15.6533L216.112 16.2113C216.22 16.4453 216.364 16.4813 216.49 16.4813H217.372C217.57 16.4813 217.768 16.3013 217.768 16.0853V11.4953C217.768 9.02926 216.868 7.98526 214.294 7.98526C213.178 7.98526 211.72 8.18326 211.522 8.25526C211.342 8.30926 211.144 8.47126 211.198 8.83126L211.396 10.1093C211.432 10.4153 211.576 10.6493 211.9 10.5413C212.44 10.3793 213.412 10.2533 213.988 10.2533C214.96 10.2533 215.14 10.7213 215.14 11.5313C215.14 11.5313 214.438 11.1713 213.502 11.1713C211.612 11.1713 210.442 12.3413 210.442 13.9433ZM213.124 13.7453C213.124 13.2593 213.538 12.8273 214.042 12.8273C214.546 12.8273 214.978 13.2593 214.978 13.7453C214.978 14.2493 214.546 14.6633 214.042 14.6633C213.538 14.6633 213.124 14.2493 213.124 13.7453ZM220.256 13.7813C220.256 15.6713 221.174 16.6793 222.758 16.6793C223.64 16.6793 224.576 16.4453 225.134 16.2113C225.368 16.1033 225.458 15.9953 225.404 15.7433L225.044 14.1773C224.99 13.9613 224.792 13.8713 224.576 13.9253C224.378 13.9793 223.838 14.1053 223.55 14.1053C223.19 14.1053 222.992 13.9253 222.992 13.5293V10.6313H224.666C224.882 10.6313 225.062 10.4513 225.062 10.2353V8.56126C225.062 8.32726 224.882 8.16526 224.666 8.16526H222.992V5.86126C222.992 5.64526 222.83 5.46526 222.632 5.46526H220.652C220.436 5.46526 220.256 5.64526 220.256 5.86126V8.16526H219.572C219.374 8.16526 219.212 8.32726 219.212 8.56126V10.2353C219.212 10.4513 219.374 10.6313 219.572 10.6313H220.256V13.7813ZM226.783 16.0853C226.783 16.3013 226.963 16.4813 227.179 16.4813H229.123C229.339 16.4813 229.519 16.3013 229.519 16.0853V8.56126C229.519 8.32726 229.339 8.16526 229.123 8.16526H227.179C226.963 8.16526 226.783 8.32726 226.783 8.56126V16.0853ZM228.133 7.01326C228.997 7.01326 229.699 6.31126 229.699 5.46526C229.699 4.60126 228.997 3.88126 228.133 3.88126C227.269 3.88126 226.585 4.60126 226.585 5.46526C226.585 6.31126 227.269 7.01326 228.133 7.01326ZM231.043 12.3053C231.043 14.6813 233.005 16.6793 235.381 16.6793C237.757 16.6793 239.701 14.6813 239.701 12.3053C239.701 9.96526 237.757 7.98526 235.381 7.98526C233.005 7.98526 231.043 9.96526 231.043 12.3053ZM233.635 12.3053C233.635 11.3513 234.409 10.5413 235.381 10.5413C236.335 10.5413 237.109 11.3513 237.109 12.3053C237.109 13.2773 236.335 14.1053 235.381 14.1053C234.409 14.1053 233.635 13.2773 233.635 12.3053ZM241.232 16.0853C241.232 16.3013 241.412 16.4813 241.628 16.4813H243.608C243.896 16.4813 243.986 16.2653 243.986 16.0853V11.9633C243.986 11.1173 244.418 10.5413 245.246 10.5413C246.182 10.5413 246.452 11.2793 246.452 12.0713V16.0853C246.452 16.3013 246.614 16.4813 246.848 16.4813H248.81C249.008 16.4813 249.188 16.3013 249.188 16.0853V12.1073C249.188 9.82126 248.306 7.98526 245.714 7.98526C244.202 7.98526 243.572 8.74126 243.122 9.24526L242.816 8.41726C242.726 8.25526 242.564 8.16526 242.438 8.16526H241.628C241.412 8.16526 241.232 8.32726 241.232 8.56126V16.0853ZM255.957 13.7813C255.957 15.6713 256.875 16.6793 258.459 16.6793C259.341 16.6793 260.277 16.4453 260.835 16.2113C261.069 16.1033 261.159 15.9953 261.105 15.7433L260.745 14.1773C260.691 13.9613 260.493 13.8713 260.277 13.9253C260.079 13.9793 259.539 14.1053 259.251 14.1053C258.891 14.1053 258.693 13.9253 258.693 13.5293V10.6313H260.367C260.583 10.6313 260.763 10.4513 260.763 10.2353V8.56126C260.763 8.32726 260.583 8.16526 260.367 8.16526H258.693V5.86126C258.693 5.64526 258.531 5.46526 258.333 5.46526H256.353C256.137 5.46526 255.957 5.64526 255.957 5.86126V8.16526H255.273C255.075 8.16526 254.913 8.32726 254.913 8.56126V10.2353C254.913 10.4513 255.075 10.6313 255.273 10.6313H255.957V13.7813ZM261.998 12.3053C261.998 14.6813 263.96 16.6793 266.336 16.6793C268.712 16.6793 270.656 14.6813 270.656 12.3053C270.656 9.96526 268.712 7.98526 266.336 7.98526C263.96 7.98526 261.998 9.96526 261.998 12.3053ZM264.59 12.3053C264.59 11.3513 265.364 10.5413 266.336 10.5413C267.29 10.5413 268.064 11.3513 268.064 12.3053C268.064 13.2773 267.29 14.1053 266.336 14.1053C265.364 14.1053 264.59 13.2773 264.59 12.3053ZM276.926 16.0493C276.926 16.2833 277.106 16.4813 277.358 16.4813H279.464C279.698 16.4813 279.896 16.2833 279.896 16.0493V10.7573L284.054 16.3373C284.09 16.3913 284.252 16.4633 284.378 16.4633H286.862C287.204 16.4633 287.402 16.0673 287.204 15.7973L282.614 9.89326L286.826 4.54726C287.024 4.27726 286.844 3.88126 286.502 3.88126H284.234C284.126 3.88126 283.964 3.97126 283.892 4.06126L279.896 9.11926V4.31326C279.896 4.07926 279.698 3.88126 279.464 3.88126H277.358C277.106 3.88126 276.926 4.07926 276.926 4.31326V16.0493ZM288.307 16.0853C288.307 16.3013 288.487 16.4813 288.703 16.4813H290.647C290.863 16.4813 291.043 16.3013 291.043 16.0853V8.56126C291.043 8.32726 290.863 8.16526 290.647 8.16526H288.703C288.487 8.16526 288.307 8.32726 288.307 8.56126V16.0853ZM289.657 7.01326C290.521 7.01326 291.223 6.31126 291.223 5.46526C291.223 4.60126 290.521 3.88126 289.657 3.88126C288.793 3.88126 288.109 4.60126 288.109 5.46526C288.109 6.31126 288.793 7.01326 289.657 7.01326ZM293.053 16.0853C293.053 16.3013 293.233 16.4813 293.449 16.4813H295.429C295.717 16.4813 295.807 16.2653 295.807 16.0853V11.9633C295.807 11.1173 296.239 10.5413 297.067 10.5413C298.003 10.5413 298.273 11.2793 298.273 12.0713V16.0853C298.273 16.3013 298.435 16.4813 298.669 16.4813H300.631C300.829 16.4813 301.009 16.3013 301.009 16.0853V12.1073C301.009 9.82126 300.127 7.98526 297.535 7.98526C296.023 7.98526 295.393 8.74126 294.943 9.24526L294.637 8.41726C294.547 8.25526 294.385 8.16526 294.259 8.16526H293.449C293.233 8.16526 293.053 8.32726 293.053 8.56126V16.0853ZM305.74 16.6793C307.954 16.6793 309.124 15.4733 309.124 14.0333C309.124 12.3593 307.756 11.6933 306.082 11.0813C305.488 10.8653 305.146 10.6853 305.146 10.4693C305.146 10.2533 305.272 10.1273 305.74 10.1273C306.406 10.1273 307.126 10.3613 307.684 10.6313C307.846 10.7033 308.062 10.6313 308.116 10.4873L308.764 9.15526C308.872 8.93926 308.764 8.72326 308.548 8.61526C307.918 8.29126 306.784 7.98526 305.704 7.98526C303.544 7.98526 302.554 9.08326 302.554 10.5773C302.554 11.9093 303.382 12.6473 304.984 13.2773C305.956 13.6553 306.406 13.8713 306.406 14.1413C306.406 14.3393 306.316 14.5373 305.776 14.5373C305.02 14.5373 304.39 14.3393 303.724 14.0153C303.544 13.9253 303.346 14.0513 303.292 14.1953L302.626 15.5633C302.536 15.7433 302.59 15.8873 302.77 15.9953C303.31 16.3193 304.39 16.6793 305.74 16.6793ZM311.206 13.7813C311.206 15.6713 312.124 16.6793 313.708 16.6793C314.59 16.6793 315.526 16.4453 316.084 16.2113C316.318 16.1033 316.408 15.9953 316.354 15.7433L315.994 14.1773C315.94 13.9613 315.742 13.8713 315.526 13.9253C315.328 13.9793 314.788 14.1053 314.5 14.1053C314.14 14.1053 313.942 13.9253 313.942 13.5293V10.6313H315.616C315.832 10.6313 316.012 10.4513 316.012 10.2353V8.56126C316.012 8.32726 315.832 8.16526 315.616 8.16526H313.942V5.86126C313.942 5.64526 313.78 5.46526 313.582 5.46526H311.602C311.386 5.46526 311.206 5.64526 311.206 5.86126V8.16526H310.522C310.324 8.16526 310.162 8.32726 310.162 8.56126V10.2353C310.162 10.4513 310.324 10.6313 310.522 10.6313H311.206V13.7813ZM317.246 13.9433C317.246 15.5993 318.488 16.6793 320.126 16.6793C321.44 16.6793 322.142 16.0853 322.646 15.6533L322.916 16.2113C323.024 16.4453 323.168 16.4813 323.294 16.4813H324.176C324.374 16.4813 324.572 16.3013 324.572 16.0853V11.4953C324.572 9.02926 323.672 7.98526 321.098 7.98526C319.982 7.98526 318.524 8.18326 318.326 8.25526C318.146 8.30926 317.948 8.47126 318.002 8.83126L318.2 10.1093C318.236 10.4153 318.38 10.6493 318.704 10.5413C319.244 10.3793 320.216 10.2533 320.792 10.2533C321.764 10.2533 321.944 10.7213 321.944 11.5313C321.944 11.5313 321.242 11.1713 320.306 11.1713C318.416 11.1713 317.246 12.3413 317.246 13.9433ZM319.928 13.7453C319.928 13.2593 320.342 12.8273 320.846 12.8273C321.35 12.8273 321.782 13.2593 321.782 13.7453C321.782 14.2493 321.35 14.6633 320.846 14.6633C320.342 14.6633 319.928 14.2493 319.928 13.7453ZM330.863 16.0853C330.863 16.3013 331.043 16.4813 331.259 16.4813H333.203C333.419 16.4813 333.599 16.3013 333.599 16.0853V8.56126C333.599 8.32726 333.419 8.16526 333.203 8.16526H331.259C331.043 8.16526 330.863 8.32726 330.863 8.56126V16.0853ZM332.213 7.01326C333.077 7.01326 333.779 6.31126 333.779 5.46526C333.779 4.60126 333.077 3.88126 332.213 3.88126C331.349 3.88126 330.665 4.60126 330.665 5.46526C330.665 6.31126 331.349 7.01326 332.213 7.01326ZM335.609 16.0853C335.609 16.3013 335.789 16.4813 336.005 16.4813H337.985C338.273 16.4813 338.363 16.2653 338.363 16.0853V11.9633C338.363 11.1173 338.795 10.5413 339.623 10.5413C340.559 10.5413 340.829 11.2793 340.829 12.0713V16.0853C340.829 16.3013 340.991 16.4813 341.225 16.4813H343.187C343.385 16.4813 343.565 16.3013 343.565 16.0853V12.1073C343.565 9.82126 342.683 7.98526 340.091 7.98526C338.579 7.98526 337.949 8.74126 337.499 9.24526L337.193 8.41726C337.103 8.25526 336.941 8.16526 336.815 8.16526H336.005C335.789 8.16526 335.609 8.32726 335.609 8.56126V16.0853ZM349.56 16.0853C349.524 16.3193 349.686 16.4813 349.902 16.4813H352.026C352.206 16.4813 352.35 16.3373 352.368 16.1933L353.16 10.6313H353.196L356.238 16.4633C356.292 16.5713 356.436 16.6613 356.544 16.6613H356.868C356.958 16.6613 357.12 16.5713 357.174 16.4633L360.198 10.6313H360.234L361.044 16.1933C361.062 16.3373 361.224 16.4813 361.386 16.4813H363.51C363.726 16.4813 363.888 16.3193 363.852 16.0853L361.818 3.98926C361.8 3.82726 361.638 3.70126 361.494 3.70126H361.206C361.116 3.70126 360.954 3.77326 360.9 3.88126L356.724 11.6573H356.688L352.512 3.88126C352.458 3.77326 352.296 3.70126 352.206 3.70126H351.918C351.774 3.70126 351.612 3.82726 351.594 3.98926L349.56 16.0853ZM365.439 16.0853C365.439 16.3013 365.619 16.4813 365.835 16.4813H367.779C367.995 16.4813 368.175 16.3013 368.175 16.0853V8.56126C368.175 8.32726 367.995 8.16526 367.779 8.16526H365.835C365.619 8.16526 365.439 8.32726 365.439 8.56126V16.0853ZM366.789 7.01326C367.653 7.01326 368.355 6.31126 368.355 5.46526C368.355 4.60126 367.653 3.88126 366.789 3.88126C365.925 3.88126 365.241 4.60126 365.241 5.46526C365.241 6.31126 365.925 7.01326 366.789 7.01326ZM370.185 16.0853C370.185 16.3013 370.365 16.4813 370.581 16.4813H372.561C372.849 16.4813 372.939 16.2653 372.939 16.0853V11.9633C372.939 11.1173 373.371 10.5413 374.199 10.5413C375.135 10.5413 375.405 11.2793 375.405 12.0713V16.0853C375.405 16.3013 375.567 16.4813 375.801 16.4813H377.763C377.961 16.4813 378.141 16.3013 378.141 16.0853V12.1073C378.141 9.82126 377.259 7.98526 374.667 7.98526C373.155 7.98526 372.525 8.74126 372.075 9.24526L371.769 8.41726C371.679 8.25526 371.517 8.16526 371.391 8.16526H370.581C370.365 8.16526 370.185 8.32726 370.185 8.56126V16.0853ZM379.992 12.7193C379.992 15.0773 380.748 16.6793 383.178 16.6793C384.42 16.6793 385.302 15.9413 385.806 15.4193L386.094 16.1933C386.166 16.3373 386.31 16.4813 386.49 16.4813H387.318C387.534 16.4813 387.714 16.3013 387.714 16.0853V8.56126C387.714 8.32726 387.534 8.16526 387.318 8.16526H385.428C385.23 8.16526 384.978 8.21926 384.978 8.56126V12.8093C384.978 13.5473 384.654 14.1053 383.844 14.1053C382.998 14.1053 382.728 13.6013 382.728 12.6653V8.56126C382.728 8.32726 382.548 8.16526 382.332 8.16526H380.37C380.172 8.16526 379.992 8.32726 379.992 8.56126V12.7193ZM390.254 13.7813C390.254 15.6713 391.172 16.6793 392.756 16.6793C393.638 16.6793 394.574 16.4453 395.132 16.2113C395.366 16.1033 395.456 15.9953 395.402 15.7433L395.042 14.1773C394.988 13.9613 394.79 13.8713 394.574 13.9253C394.376 13.9793 393.836 14.1053 393.548 14.1053C393.188 14.1053 392.99 13.9253 392.99 13.5293V10.6313H394.664C394.88 10.6313 395.06 10.4513 395.06 10.2353V8.56126C395.06 8.32726 394.88 8.16526 394.664 8.16526H392.99V5.86126C392.99 5.64526 392.828 5.46526 392.63 5.46526H390.65C390.434 5.46526 390.254 5.64526 390.254 5.86126V8.16526H389.57C389.372 8.16526 389.21 8.32726 389.21 8.56126V10.2353C389.21 10.4513 389.372 10.6313 389.57 10.6313H390.254V13.7813ZM396.313 12.3233C396.313 14.8973 398.185 16.6793 400.669 16.6793C401.983 16.6793 403.027 16.2293 403.747 15.4913C403.927 15.3113 403.891 15.0593 403.765 14.8973L402.847 13.6913C402.721 13.5293 402.505 13.5293 402.325 13.6913C401.965 13.9433 401.281 14.2133 400.741 14.2133C399.607 14.2133 399.013 13.4213 399.013 12.7733H404.143C404.323 12.7733 404.521 12.6293 404.539 12.4133C404.557 12.2873 404.575 11.9993 404.575 11.8733C404.575 9.58726 402.739 7.98526 400.633 7.98526C398.167 7.98526 396.313 9.98326 396.313 12.3233ZM399.319 11.1893C399.427 10.6313 399.877 10.1633 400.561 10.1633C401.263 10.1633 401.731 10.6313 401.767 11.1893H399.319ZM408.818 16.6793C411.032 16.6793 412.202 15.4733 412.202 14.0333C412.202 12.3593 410.834 11.6933 409.16 11.0813C408.566 10.8653 408.224 10.6853 408.224 10.4693C408.224 10.2533 408.35 10.1273 408.818 10.1273C409.484 10.1273 410.204 10.3613 410.762 10.6313C410.924 10.7033 411.14 10.6313 411.194 10.4873L411.842 9.15526C411.95 8.93926 411.842 8.72326 411.626 8.61526C410.996 8.29126 409.862 7.98526 408.782 7.98526C406.622 7.98526 405.632 9.08326 405.632 10.5773C405.632 11.9093 406.46 12.6473 408.062 13.2773C409.034 13.6553 409.484 13.8713 409.484 14.1413C409.484 14.3393 409.394 14.5373 408.854 14.5373C408.098 14.5373 407.468 14.3393 406.802 14.0153C406.622 13.9253 406.424 14.0513 406.37 14.1953L405.704 15.5633C405.614 15.7433 405.668 15.8873 405.848 15.9953C406.388 16.3193 407.468 16.6793 408.818 16.6793ZM413.312 14.7173C413.312 15.7793 414.212 16.6793 415.274 16.6793C416.336 16.6793 417.272 15.7793 417.272 14.7173C417.272 13.6193 416.336 12.7193 415.274 12.7193C414.212 12.7193 413.312 13.6193 413.312 14.7173ZM427.162 16.6613C429.808 16.6613 431.41 14.7893 431.41 12.9353C431.41 10.4873 429.358 9.60526 427.774 8.83126C426.514 8.21926 425.812 7.75126 425.812 7.15726C425.812 6.63526 426.154 6.16726 426.91 6.16726C427.864 6.16726 428.926 6.85126 429.34 7.13926C429.7 7.35526 430.006 7.21126 430.132 7.01326L431.05 5.62726C431.122 5.50126 431.158 5.17726 430.942 5.05126C430.402 4.65526 428.962 3.70126 427.09 3.70126C424.318 3.70126 422.932 5.50126 422.932 7.28326C422.932 9.44326 424.678 10.4153 426.424 11.2613C427.612 11.8373 428.278 12.3233 428.278 13.0793C428.278 13.7093 427.756 14.1593 427.036 14.1593C425.902 14.1593 424.984 13.5113 424.48 13.1693C424.3 13.0433 424.012 13.0433 423.868 13.2773L423.04 14.7353C422.914 14.9693 422.968 15.1313 423.112 15.2753C423.526 15.6893 424.822 16.6613 427.162 16.6613ZM433.321 13.7813C433.321 15.6713 434.239 16.6793 435.823 16.6793C436.705 16.6793 437.641 16.4453 438.199 16.2113C438.433 16.1033 438.523 15.9953 438.469 15.7433L438.109 14.1773C438.055 13.9613 437.857 13.8713 437.641 13.9253C437.443 13.9793 436.903 14.1053 436.615 14.1053C436.255 14.1053 436.057 13.9253 436.057 13.5293V10.6313H437.731C437.947 10.6313 438.127 10.4513 438.127 10.2353V8.56126C438.127 8.32726 437.947 8.16526 437.731 8.16526H436.057V5.86126C436.057 5.64526 435.895 5.46526 435.697 5.46526H433.717C433.501 5.46526 433.321 5.64526 433.321 5.86126V8.16526H432.637C432.439 8.16526 432.277 8.32726 432.277 8.56126V10.2353C432.277 10.4513 432.439 10.6313 432.637 10.6313H433.321V13.7813ZM439.362 13.9433C439.362 15.5993 440.604 16.6793 442.242 16.6793C443.556 16.6793 444.258 16.0853 444.762 15.6533L445.032 16.2113C445.14 16.4453 445.284 16.4813 445.41 16.4813H446.292C446.49 16.4813 446.688 16.3013 446.688 16.0853V11.4953C446.688 9.02926 445.788 7.98526 443.214 7.98526C442.098 7.98526 440.64 8.18326 440.442 8.25526C440.262 8.30926 440.064 8.47126 440.118 8.83126L440.316 10.1093C440.352 10.4153 440.496 10.6493 440.82 10.5413C441.36 10.3793 442.332 10.2533 442.908 10.2533C443.88 10.2533 444.06 10.7213 444.06 11.5313C444.06 11.5313 443.358 11.1713 442.422 11.1713C440.532 11.1713 439.362 12.3413 439.362 13.9433ZM442.044 13.7453C442.044 13.2593 442.458 12.8273 442.962 12.8273C443.466 12.8273 443.898 13.2593 443.898 13.7453C443.898 14.2493 443.466 14.6633 442.962 14.6633C442.458 14.6633 442.044 14.2493 442.044 13.7453ZM448.654 16.0853C448.654 16.3013 448.834 16.4813 449.05 16.4813H450.94C451.246 16.4813 451.39 16.3373 451.39 16.0853V11.7293C451.39 11.0273 451.858 10.5773 452.488 10.5773C452.668 10.5773 452.974 10.6493 453.118 10.7033C453.352 10.7933 453.496 10.6673 453.586 10.5053L454.414 8.86726C454.504 8.70526 454.504 8.52526 454.36 8.41726C454.054 8.18326 453.496 7.98526 452.74 7.98526C451.66 7.98526 451.03 8.66926 450.67 9.33526L450.292 8.41726C450.238 8.27326 450.13 8.16526 449.914 8.16526H449.05C448.834 8.16526 448.654 8.32726 448.654 8.56126V16.0853ZM456.049 13.7813C456.049 15.6713 456.967 16.6793 458.551 16.6793C459.433 16.6793 460.369 16.4453 460.927 16.2113C461.161 16.1033 461.251 15.9953 461.197 15.7433L460.837 14.1773C460.783 13.9613 460.585 13.8713 460.369 13.9253C460.171 13.9793 459.631 14.1053 459.343 14.1053C458.983 14.1053 458.785 13.9253 458.785 13.5293V10.6313H460.459C460.675 10.6313 460.855 10.4513 460.855 10.2353V8.56126C460.855 8.32726 460.675 8.16526 460.459 8.16526H458.785V5.86126C458.785 5.64526 458.623 5.46526 458.425 5.46526H456.445C456.229 5.46526 456.049 5.64526 456.049 5.86126V8.16526H455.365C455.167 8.16526 455.005 8.32726 455.005 8.56126V10.2353C455.005 10.4513 455.167 10.6313 455.365 10.6313H456.049V13.7813ZM469.618 16.4093C469.654 16.5533 469.798 16.6613 469.942 16.6613H470.23C470.356 16.6613 470.482 16.5713 470.536 16.4633L473.812 9.10126H473.866L477.16 16.4633C477.214 16.5713 477.34 16.6613 477.466 16.6613H477.754C477.898 16.6613 478.042 16.5533 478.078 16.4093L481.48 4.31326C481.552 4.06126 481.408 3.88126 481.156 3.88126H479.05C478.906 3.88126 478.762 4.00726 478.726 4.13326L477.178 10.2353H477.106L474.316 3.89926C474.28 3.79126 474.172 3.70126 474.01 3.70126H473.686C473.542 3.70126 473.434 3.79126 473.38 3.89926L470.59 10.2353H470.518L468.97 4.13326C468.934 4.00726 468.79 3.88126 468.646 3.88126H466.54C466.288 3.88126 466.144 4.06126 466.216 4.31326L469.618 16.4093ZM482.809 16.0853C482.809 16.3013 482.989 16.4813 483.205 16.4813H485.149C485.365 16.4813 485.545 16.3013 485.545 16.0853V8.56126C485.545 8.32726 485.365 8.16526 485.149 8.16526H483.205C482.989 8.16526 482.809 8.32726 482.809 8.56126V16.0853ZM484.159 7.01326C485.023 7.01326 485.725 6.31126 485.725 5.46526C485.725 4.60126 485.023 3.88126 484.159 3.88126C483.295 3.88126 482.611 4.60126 482.611 5.46526C482.611 6.31126 483.295 7.01326 484.159 7.01326ZM488.077 13.7813C488.077 15.6713 488.995 16.6793 490.579 16.6793C491.461 16.6793 492.397 16.4453 492.955 16.2113C493.189 16.1033 493.279 15.9953 493.225 15.7433L492.865 14.1773C492.811 13.9613 492.613 13.8713 492.397 13.9253C492.199 13.9793 491.659 14.1053 491.371 14.1053C491.011 14.1053 490.813 13.9253 490.813 13.5293V10.6313H492.487C492.703 10.6313 492.883 10.4513 492.883 10.2353V8.56126C492.883 8.32726 492.703 8.16526 492.487 8.16526H490.813V5.86126C490.813 5.64526 490.651 5.46526 490.453 5.46526H488.473C488.257 5.46526 488.077 5.64526 488.077 5.86126V8.16526H487.393C487.195 8.16526 487.033 8.32726 487.033 8.56126V10.2353C487.033 10.4513 487.195 10.6313 487.393 10.6313H488.077V13.7813ZM494.621 16.0853C494.621 16.3013 494.801 16.4813 495.017 16.4813H496.907C497.267 16.4813 497.357 16.3553 497.357 16.0853V12.1613C497.357 10.9013 497.915 10.5413 498.581 10.5413C499.481 10.5413 499.823 11.2253 499.823 12.1613V16.0853C499.823 16.3013 499.985 16.4813 500.219 16.4813H502.163C502.361 16.4813 502.559 16.3013 502.559 16.0853V12.1973C502.559 9.89326 501.731 7.98526 499.121 7.98526C498.509 7.98526 497.933 8.18326 497.357 8.57926V4.27726C497.357 4.07926 497.177 3.88126 496.961 3.88126H495.017C494.801 3.88126 494.621 4.07926 494.621 4.27726V16.0853ZM508.321 13.9433C508.321 15.5993 509.563 16.6793 511.201 16.6793C512.515 16.6793 513.217 16.0853 513.721 15.6533L513.991 16.2113C514.099 16.4453 514.243 16.4813 514.369 16.4813H515.251C515.449 16.4813 515.647 16.3013 515.647 16.0853V11.4953C515.647 9.02926 514.747 7.98526 512.173 7.98526C511.057 7.98526 509.599 8.18326 509.401 8.25526C509.221 8.30926 509.023 8.47126 509.077 8.83126L509.275 10.1093C509.311 10.4153 509.455 10.6493 509.779 10.5413C510.319 10.3793 511.291 10.2533 511.867 10.2533C512.839 10.2533 513.019 10.7213 513.019 11.5313C513.019 11.5313 512.317 11.1713 511.381 11.1713C509.491 11.1713 508.321 12.3413 508.321 13.9433ZM511.003 13.7453C511.003 13.2593 511.417 12.8273 511.921 12.8273C512.425 12.8273 512.857 13.2593 512.857 13.7453C512.857 14.2493 512.425 14.6633 511.921 14.6633C511.417 14.6633 511.003 14.2493 511.003 13.7453ZM525.753 16.6433V18.5153C525.753 18.6953 525.915 18.8393 526.095 18.8393H526.437C526.617 18.8393 526.779 18.6953 526.779 18.5153V16.6433C529.155 16.4273 530.595 14.7893 530.595 12.9353C530.595 10.4873 528.345 9.60526 526.779 8.72326V6.07726C527.751 6.41926 528.219 6.77926 528.741 7.15726C528.885 7.26526 529.083 7.24726 529.227 7.04926L530.235 5.62726C530.307 5.50126 530.343 5.17726 530.127 5.05126C529.641 4.69126 528.399 3.88126 526.779 3.73726V3.14326C526.779 2.94526 526.617 2.80126 526.437 2.80126H526.095C525.915 2.80126 525.753 2.94526 525.753 3.14326V3.71926C523.359 3.95326 522.117 5.48326 522.117 7.28326C522.117 9.42526 524.097 10.4513 525.753 11.3333V14.3573C524.781 14.1593 524.115 13.7273 523.503 13.2593C523.251 13.0793 523.089 13.1153 522.927 13.4033L522.297 14.5913C522.135 14.8973 522.099 15.1133 522.369 15.3293C522.765 15.6533 523.971 16.4993 525.753 16.6433ZM525.753 8.29126C525.033 7.85926 524.727 7.53526 524.727 6.88726C524.727 6.43726 525.177 6.02326 525.753 5.95126V8.29126ZM526.779 14.4113V11.7833C527.409 12.2153 527.751 12.7373 527.751 13.2953C527.751 13.8533 527.337 14.2673 526.779 14.4113ZM536.924 14.0693C537.788 12.8453 539.3 10.8833 539.876 9.83926C540.326 8.97526 540.596 8.43526 540.596 7.44526C540.596 5.39326 539.03 3.70126 536.384 3.70126C534.548 3.70126 533.378 4.76326 532.676 5.51926C532.55 5.66326 532.568 5.89726 532.694 6.00526L533.828 7.15726C533.972 7.30126 534.206 7.30126 534.35 7.15726C534.836 6.68926 535.394 6.22126 536.15 6.22126C537.176 6.22126 537.77 6.85126 537.77 7.57126C537.77 8.07526 537.536 8.57926 537.302 8.95726C536.276 10.5233 533.81 13.8713 532.622 15.4553C532.388 15.7613 532.388 15.7973 532.388 15.9773V16.1213C532.388 16.3193 532.532 16.4813 532.73 16.4813H540.146C540.344 16.4813 540.506 16.3193 540.506 16.1213V14.4653C540.506 14.2673 540.344 14.1053 540.146 14.1053H536.924V14.0693ZM547.414 16.6613C550.438 16.6613 552.166 14.2313 552.166 10.1813C552.166 6.11326 550.438 3.70126 547.414 3.70126C544.39 3.70126 542.68 6.11326 542.68 10.1813C542.68 14.2313 544.39 16.6613 547.414 16.6613ZM547.414 14.0513C546.298 14.0513 545.506 12.6293 545.506 10.1813C545.506 7.75126 546.298 6.32926 547.414 6.32926C548.548 6.32926 549.34 7.75126 549.34 10.1813C549.34 12.6293 548.548 14.0513 547.414 14.0513ZM558.194 10.1993C558.194 13.7993 561.092 16.6613 564.692 16.6613C566.294 16.6613 567.842 16.1033 569.066 14.9153C569.192 14.7893 569.21 14.5553 569.084 14.4293L567.68 12.9353C567.572 12.8093 567.338 12.8093 567.212 12.9173C566.564 13.4753 565.79 13.7813 564.8 13.7813C562.766 13.7813 561.254 12.1253 561.254 10.1273C561.254 8.11126 562.748 6.41926 564.782 6.41926C565.664 6.41926 566.474 6.68926 567.212 7.33726C567.338 7.46326 567.536 7.46326 567.662 7.33726L569.066 5.87926C569.21 5.73526 569.21 5.51926 569.048 5.37526C567.824 4.25926 566.492 3.70126 564.692 3.70126C561.092 3.70126 558.194 6.59926 558.194 10.1993ZM570.471 16.0853C570.471 16.3013 570.651 16.4813 570.867 16.4813H572.757C573.063 16.4813 573.207 16.3373 573.207 16.0853V11.7293C573.207 11.0273 573.675 10.5773 574.305 10.5773C574.485 10.5773 574.791 10.6493 574.935 10.7033C575.169 10.7933 575.313 10.6673 575.403 10.5053L576.231 8.86726C576.321 8.70526 576.321 8.52526 576.177 8.41726C575.871 8.18326 575.313 7.98526 574.557 7.98526C573.477 7.98526 572.847 8.66926 572.487 9.33526L572.109 8.41726C572.055 8.27326 571.947 8.16526 571.731 8.16526H570.867C570.651 8.16526 570.471 8.32726 570.471 8.56126V16.0853ZM576.647 12.3233C576.647 14.8973 578.519 16.6793 581.003 16.6793C582.317 16.6793 583.361 16.2293 584.081 15.4913C584.261 15.3113 584.225 15.0593 584.099 14.8973L583.181 13.6913C583.055 13.5293 582.839 13.5293 582.659 13.6913C582.299 13.9433 581.615 14.2133 581.075 14.2133C579.941 14.2133 579.347 13.4213 579.347 12.7733H584.477C584.657 12.7733 584.855 12.6293 584.873 12.4133C584.891 12.2873 584.909 11.9993 584.909 11.8733C584.909 9.58726 583.073 7.98526 580.967 7.98526C578.501 7.98526 576.647 9.98326 576.647 12.3233ZM579.653 11.1893C579.761 10.6313 580.211 10.1633 580.895 10.1633C581.597 10.1633 582.065 10.6313 582.101 11.1893H579.653ZM585.894 12.3233C585.894 14.6993 587.658 16.6793 589.998 16.6793C591.834 16.6793 592.806 15.3833 592.806 15.3833L593.04 16.0673C593.112 16.3013 593.274 16.4813 593.472 16.4813H594.282C594.498 16.4813 594.678 16.3013 594.678 16.0853V4.27726C594.678 4.07926 594.498 3.88126 594.282 3.88126H592.338C592.122 3.88126 591.942 4.07926 591.942 4.27726V8.45326C591.672 8.23726 590.826 7.98526 590.016 7.98526C587.802 7.98526 585.894 9.38926 585.894 12.3233ZM588.648 12.3053C588.648 11.2973 589.422 10.5413 590.412 10.5413C591.438 10.5413 592.176 11.2973 592.176 12.3053C592.176 13.3313 591.438 14.1053 590.412 14.1053C589.422 14.1053 588.648 13.3313 588.648 12.3053ZM596.715 16.0853C596.715 16.3013 596.895 16.4813 597.111 16.4813H599.055C599.271 16.4813 599.451 16.3013 599.451 16.0853V8.56126C599.451 8.32726 599.271 8.16526 599.055 8.16526H597.111C596.895 8.16526 596.715 8.32726 596.715 8.56126V16.0853ZM598.065 7.01326C598.929 7.01326 599.631 6.31126 599.631 5.46526C599.631 4.60126 598.929 3.88126 598.065 3.88126C597.201 3.88126 596.517 4.60126 596.517 5.46526C596.517 6.31126 597.201 7.01326 598.065 7.01326ZM601.983 13.7813C601.983 15.6713 602.901 16.6793 604.485 16.6793C605.367 16.6793 606.303 16.4453 606.861 16.2113C607.095 16.1033 607.185 15.9953 607.131 15.7433L606.771 14.1773C606.717 13.9613 606.519 13.8713 606.303 13.9253C606.105 13.9793 605.565 14.1053 605.277 14.1053C604.917 14.1053 604.719 13.9253 604.719 13.5293V10.6313H606.393C606.609 10.6313 606.789 10.4513 606.789 10.2353V8.56126C606.789 8.32726 606.609 8.16526 606.393 8.16526H604.719V5.86126C604.719 5.64526 604.557 5.46526 604.359 5.46526H602.379C602.163 5.46526 601.983 5.64526 601.983 5.86126V8.16526H601.299C601.101 8.16526 600.939 8.32726 600.939 8.56126V10.2353C600.939 10.4513 601.101 10.6313 601.299 10.6313H601.983V13.7813ZM613.248 16.1393C613.248 16.3193 613.41 16.4813 613.59 16.4813H615.732C615.93 16.4813 616.074 16.3193 616.074 16.1393V9.42526H616.092L623.094 16.4633C623.238 16.6073 623.364 16.6613 623.544 16.6613H623.724C623.904 16.6613 624.066 16.5533 624.066 16.3373V4.22326C624.066 4.04326 623.904 3.88126 623.724 3.88126H621.564C621.366 3.88126 621.222 4.04326 621.222 4.22326V10.6133H621.204L614.292 3.97126C614.148 3.82726 614.022 3.70126 613.842 3.70126H613.572C613.392 3.70126 613.23 3.84526 613.23 4.02526L613.248 16.1393ZM625.655 12.3053C625.655 14.6813 627.617 16.6793 629.993 16.6793C632.369 16.6793 634.313 14.6813 634.313 12.3053C634.313 9.96526 632.369 7.98526 629.993 7.98526C627.617 7.98526 625.655 9.96526 625.655 12.3053ZM628.247 12.3053C628.247 11.3513 629.021 10.5413 629.993 10.5413C630.947 10.5413 631.721 11.3513 631.721 12.3053C631.721 13.2773 630.947 14.1053 629.993 14.1053C629.021 14.1053 628.247 13.2773 628.247 12.3053ZM637.649 16.4273C637.703 16.5713 637.865 16.6793 638.009 16.6793H638.117C638.207 16.6793 638.387 16.5893 638.441 16.4993L641.087 12.0173H641.105L643.787 16.4993C643.823 16.5893 644.021 16.6793 644.111 16.6793H644.201C644.363 16.6793 644.525 16.5713 644.579 16.4273L647.333 8.66926C647.423 8.41726 647.243 8.16526 646.955 8.16526H645.209C644.993 8.16526 644.867 8.21926 644.795 8.41726L643.607 11.8733H643.589L641.537 8.14726C641.501 8.05726 641.375 7.98526 641.213 7.98526H641.015C640.835 7.98526 640.727 8.07526 640.691 8.14726L638.657 11.8733H638.639L637.433 8.41726C637.379 8.25526 637.181 8.16526 637.055 8.16526H635.273C634.967 8.16526 634.805 8.39926 634.895 8.66926L637.649 16.4273ZM647.716 14.7173C647.716 15.7793 648.616 16.6793 649.678 16.6793C650.74 16.6793 651.676 15.7793 651.676 14.7173C651.676 13.6193 650.74 12.7193 649.678 12.7193C648.616 12.7193 647.716 13.6193 647.716 14.7173Z" fill="white"/>
</svg>
