<svg width="96" height="19" viewBox="0 0 96 19" fill="none" xmlns="http://www.w3.org/2000/svg">
<path fill-rule="evenodd" clip-rule="evenodd" d="M95.2859 0.687079C95.0732 0.686757 94.8715 0.777597 94.7356 0.934888L93.6585 2.16267C93.5373 2.30665 93.3608 2.39742 93.169 2.41438C92.9772 2.43135 92.7865 2.37308 92.64 2.25279C92.3824 2.03877 92.1132 1.83601 91.8322 1.64453C91.3522 1.31316 90.8429 1.02294 90.3102 0.777191C89.7886 0.535133 89.2435 0.342729 88.6829 0.202723C88.1242 0.0667959 87.55 -0.00131791 86.9737 -3.02884e-05C85.7685 -0.00691776 84.5742 0.219075 83.4615 0.66455C82.3862 1.09394 81.411 1.72585 80.5932 2.52312C79.757 3.34522 79.0967 4.3173 78.6498 5.3842C78.1771 6.53865 77.9425 7.77056 77.959 9.01123C77.9339 10.3122 78.1725 11.6054 78.6615 12.8185C79.1 13.8796 79.7616 14.8422 80.6049 15.6458C81.4249 16.4154 82.4014 17.0137 83.4732 17.403C84.5948 17.8129 85.7856 18.0191 86.9854 18.0112C87.5545 18.0087 88.1209 17.9368 88.6712 17.7972C89.2308 17.6589 89.7756 17.4704 90.2985 17.234C90.8267 16.9956 91.3321 16.7129 91.8088 16.3892C92.078 16.209 92.3356 16.0175 92.5931 15.8261L92.5932 15.826C92.7462 15.7069 92.9436 15.6539 93.1386 15.6795C93.3337 15.7051 93.5091 15.807 93.6234 15.9612L94.7005 17.403C94.8792 17.649 95.2031 17.7549 95.5006 17.6647C95.7981 17.5744 96.0003 17.3088 96 17.0087V1.38545C96.0001 1.00411 95.6822 0.693229 95.2859 0.687079ZM38.3766 1.23902C39.3129 1.62382 40.1634 2.17833 40.882 2.87231C41.5821 3.57723 42.1381 4.4026 42.521 5.30535C42.9355 6.24579 43.1466 7.25758 43.1415 8.27907V17.2903C43.1415 17.6717 42.8236 17.9826 42.4273 17.9887H39.36C38.9591 17.9887 38.6341 17.676 38.6341 17.2903V8.27907C38.6345 7.8621 38.551 7.449 38.3883 7.06255C38.0486 6.27943 37.4065 5.65357 36.5971 5.31662C36.187 5.1453 35.7446 5.05711 35.2976 5.05754C34.3894 5.05316 33.517 5.39782 32.8741 6.01499C32.5647 6.31189 32.3182 6.66386 32.1483 7.05128C31.9706 7.4499 31.879 7.87912 31.879 8.31286V17.3241C31.8791 17.7055 31.5612 18.0163 31.1649 18.0225H28.0976C27.7381 17.9775 27.4682 17.6842 27.4654 17.3354V1.67832C27.4622 1.49414 27.5361 1.31646 27.6704 1.18516C27.8046 1.05386 27.9881 0.97992 28.1795 0.979945C28.3858 0.981577 28.5816 1.06759 28.7181 1.21649L29.9824 2.60197C30.7047 1.96838 31.5421 1.46817 32.4527 1.12638C33.3729 0.793469 34.3497 0.629189 35.3327 0.642022C36.3791 0.63849 37.4151 0.841683 38.3766 1.23902ZM63.5824 1.00247H75.6527C76.0444 1.01464 76.3553 1.32377 76.3551 1.70085V4.62951C76.3552 5.01085 76.0373 5.32173 75.641 5.32788H70.2439C69.88 5.37343 69.6086 5.67317 69.6117 6.02625V10.3855C69.6054 10.8259 69.6931 11.263 69.8693 11.6696C70.0383 12.0607 70.2849 12.4165 70.5951 12.7171C70.9084 13.0175 71.2778 13.2583 71.6839 13.4268C72.1057 13.5998 72.5599 13.688 73.0185 13.6858H75.7112C76.1075 13.692 76.4254 14.0029 76.4254 14.3842V17.3241C76.4254 17.7055 76.1075 18.0163 75.7112 18.0225H73.0185C71.9641 18.0301 70.9196 17.8268 69.9512 17.4255C68.0556 16.6413 66.5464 15.1852 65.7366 13.3592C65.323 12.4224 65.1119 11.4145 65.1161 10.3967V6.03752C65.1161 5.65182 64.7911 5.33914 64.3902 5.33914H63.5824C63.391 5.33917 63.2075 5.26523 63.0733 5.13393C62.939 5.00262 62.8652 4.82495 62.8683 4.64077V1.70085C62.8682 1.3195 63.1861 1.00862 63.5824 1.00247ZM90.1463 12.2328C90.5537 11.7988 90.8787 11.2994 91.1063 10.7572V10.7459C91.5743 9.63717 91.5743 8.39656 91.1063 7.28783C90.8787 6.74564 90.5537 6.24618 90.1463 5.81223C89.7431 5.39904 89.2625 5.06274 88.7298 4.821C88.1872 4.56455 87.5899 4.43342 86.9854 4.43802C86.3894 4.43483 85.7979 4.53795 85.241 4.74215C84.7075 4.93673 84.2242 5.24033 83.8244 5.63201C83.4152 6.03249 83.0928 6.50729 82.8761 7.02876C82.6333 7.66318 82.5142 8.33525 82.5249 9.01123C82.5088 9.69031 82.6239 10.3664 82.8644 11.005C83.0723 11.5474 83.3953 12.0422 83.8127 12.458C84.2117 12.8506 84.6952 13.1543 85.2293 13.3479C85.7861 13.5524 86.3776 13.6555 86.9737 13.652C87.5781 13.6558 88.1752 13.5247 88.718 13.2691C89.2571 13.0123 89.7416 12.6609 90.1463 12.2328ZM3.81659 0.968681H0.725854C0.324976 0.968681 0 1.28135 0 1.66705V17.3241C0 17.7098 0.324976 18.0225 0.725854 18.0225H3.81659C4.21288 18.0163 4.53078 17.7055 4.53073 17.3241V1.66705C4.53387 1.48288 4.46002 1.3052 4.32575 1.1739C4.19148 1.04259 4.00803 0.968656 3.81659 0.968681ZM16.5793 1.36964C16.6954 1.60735 16.6631 1.88765 16.4956 2.09509L10.2907 9.05629C10.0557 9.31839 10.0557 9.70658 10.2907 9.96868L16.5776 16.8623C16.745 17.0697 16.7773 17.35 16.6612 17.5877C16.5451 17.8255 16.3002 17.9804 16.0273 17.9887H12.5151C12.3025 17.989 12.1008 17.8982 11.9649 17.7409L4.94049 9.92362C4.70034 9.66338 4.70034 9.27148 4.94049 9.01123L11.8829 1.21649C12.0189 1.0592 12.2206 0.968359 12.4332 0.968681H15.9454C16.2182 0.977008 16.4631 1.13193 16.5793 1.36964ZM23.2507 0.968681C23.04 0.965558 22.8386 1.05213 22.7005 1.20523L22.56 1.36292L19.6332 4.58445C19.5201 4.70936 19.4577 4.86937 19.4576 5.03501V17.3241C19.4544 17.5083 19.5283 17.686 19.6625 17.8173C19.7968 17.9486 19.9803 18.0225 20.1717 18.0225H23.239C23.6353 18.0163 23.9532 17.7055 23.9532 17.3241V1.66705C23.9532 1.28571 23.6353 0.974831 23.239 0.968681H23.2507ZM58.279 7.88483C58.9378 8.12889 59.5419 8.49213 60.0585 8.95491C60.5515 9.41307 60.9454 9.96049 61.2176 10.5657C61.5187 11.2099 61.6706 11.9094 61.6624 12.6157C61.6667 13.3399 61.5153 14.057 61.2176 14.7221C60.9407 15.3609 60.5438 15.9452 60.0468 16.4455C59.0015 17.4626 57.5764 18.0345 56.0898 18.0338H46.5132C46.3217 18.0338 46.1383 17.9599 46.004 17.8285C45.8697 17.6972 45.7959 17.5196 45.799 17.3354V14.3955C45.7959 14.2113 45.8697 14.0336 46.004 13.9023C46.1383 13.771 46.3217 13.6971 46.5132 13.6971H56.2185C56.4871 13.6984 56.7437 13.59 56.9245 13.3988C57.1053 13.2077 57.1934 12.9518 57.1668 12.6946C57.1181 12.2156 56.6953 11.8529 56.1951 11.861H51.36C50.6073 11.8658 49.8618 11.7201 49.1707 11.433C47.8482 10.8591 46.8048 9.81894 46.2556 8.52688C45.9576 7.85792 45.8062 7.13703 45.8107 6.40923C45.8025 5.68222 45.9499 4.96136 46.2439 4.29158C46.7966 3.00855 47.8462 1.98256 49.1707 1.43051C49.8771 1.13983 50.6386 0.994047 51.4068 1.00247H59.918C60.3144 1.00862 60.6322 1.3195 60.6322 1.70085V4.59571C60.6322 4.97706 60.3144 5.28794 59.918 5.29409H51.5122C50.8656 5.29409 50.3415 5.7984 50.3415 6.4205C50.3329 6.70055 50.433 6.97364 50.6224 7.18645C50.8278 7.39881 51.1171 7.51751 51.4185 7.51311H56.1015C56.8448 7.50857 57.5827 7.63453 58.279 7.88483Z" fill="white"/>
</svg>
