<svg width="624" height="22" viewBox="0 0 624 22" fill="none" xmlns="http://www.w3.org/2000/svg">
<path d="M6.35409 16.4813H1.71347V3.39035H6.39244C7.70921 3.39035 8.84273 3.65243 9.79301 4.17657C10.7433 4.69646 11.4741 5.44433 11.9855 6.42018C12.5011 7.39603 12.7589 8.56365 12.7589 9.92302C12.7589 11.2867 12.5011 12.4585 11.9855 13.4386C11.4741 14.4188 10.739 15.1709 9.78023 15.695C8.82568 16.2192 7.68364 16.4813 6.35409 16.4813ZM4.48122 14.1098H6.23904C7.05722 14.1098 7.74543 13.9649 8.30367 13.6752C8.86617 13.3811 9.28804 12.9273 9.56929 12.3136C9.8548 11.6958 9.99756 10.8989 9.99756 9.92302C9.99756 8.95569 9.8548 8.16521 9.56929 7.55157C9.28804 6.93794 8.8683 6.48623 8.31006 6.19646C7.75182 5.90669 7.06361 5.7618 6.24543 5.7618H4.48122V14.1098ZM19.2325 16.673C18.2225 16.673 17.3532 16.4685 16.6245 16.0594C15.9001 15.646 15.3418 15.0622 14.9498 14.308C14.5578 13.5494 14.3617 12.6524 14.3617 11.6169C14.3617 10.607 14.5578 9.72061 14.9498 8.95782C15.3418 8.19504 15.8937 7.60058 16.6053 7.17444C17.3212 6.74831 18.1607 6.53524 19.1238 6.53524C19.7715 6.53524 20.3745 6.63964 20.9328 6.84845C21.4953 7.05299 21.9853 7.36194 22.4029 7.7753C22.8248 8.18865 23.1529 8.70853 23.3873 9.33496C23.6217 9.95711 23.7389 10.6858 23.7389 11.521V12.2689H15.4484V10.5814H21.1756C21.1756 10.1894 21.0904 9.84206 20.92 9.5395C20.7495 9.23694 20.513 9.00044 20.2104 8.82998C19.9122 8.65527 19.5649 8.56791 19.1685 8.56791C18.7552 8.56791 18.3887 8.66379 18.0691 8.85555C17.7538 9.04305 17.5066 9.2966 17.3276 9.61621C17.1487 9.93155 17.057 10.2831 17.0528 10.6709V12.2753C17.0528 12.7611 17.1423 13.1808 17.3212 13.5345C17.5045 13.8882 17.7623 14.1609 18.0947 14.3527C18.4271 14.5445 18.8212 14.6404 19.2772 14.6404C19.5798 14.6404 19.8568 14.5977 20.1082 14.5125C20.3596 14.4273 20.5748 14.2994 20.7538 14.129C20.9328 13.9585 21.0691 13.7497 21.1629 13.5026L23.6813 13.6688C23.5535 14.2739 23.2914 14.8023 22.8951 15.254C22.5031 15.7014 21.996 16.0509 21.3738 16.3023C20.7559 16.5494 20.0421 16.673 19.2325 16.673ZM25.5158 20.1631V6.66308H28.2005V8.31223H28.322C28.4413 8.04802 28.6139 7.77956 28.8397 7.50683C29.0698 7.22984 29.3681 6.99973 29.7346 6.81649C30.1053 6.62899 30.5656 6.53524 31.1153 6.53524C31.8312 6.53524 32.4917 6.72274 33.0968 7.09774C33.7019 7.46848 34.1856 8.02885 34.5478 8.77885C34.91 9.52459 35.0911 10.46 35.0911 11.585C35.0911 12.6801 34.9143 13.6048 34.5606 14.3591C34.2112 15.1091 33.7339 15.678 33.1288 16.0658C32.5279 16.4493 31.8546 16.6411 31.1089 16.6411C30.5805 16.6411 30.1309 16.5537 29.7602 16.379C29.3937 16.2043 29.0933 15.9848 28.8589 15.7206C28.6245 15.4521 28.4455 15.1815 28.322 14.9088H28.2389V20.1631H25.5158ZM28.1813 11.5722C28.1813 12.156 28.2623 12.6652 28.4242 13.0999C28.5862 13.5345 28.8205 13.8733 29.1274 14.1162C29.4342 14.3548 29.807 14.4742 30.246 14.4742C30.6891 14.4742 31.0641 14.3527 31.371 14.1098C31.6778 13.8627 31.91 13.5217 32.0677 13.0871C32.2296 12.6482 32.3106 12.1432 32.3106 11.5722C32.3106 11.0054 32.2318 10.5068 32.0741 10.0764C31.9164 9.64603 31.6842 9.30939 31.3774 9.06649C31.0705 8.82359 30.6934 8.70214 30.246 8.70214C29.8028 8.70214 29.4278 8.81933 29.121 9.05371C28.8184 9.28808 28.5862 9.62047 28.4242 10.0509C28.2623 10.4813 28.1813 10.9884 28.1813 11.5722ZM39.6295 3.39035V16.4813H36.9065V3.39035H39.6295ZM46.2468 16.673C45.254 16.673 44.3953 16.4621 43.6709 16.0402C42.9507 15.6141 42.3946 15.0217 42.0025 14.2632C41.6105 13.5004 41.4145 12.6162 41.4145 11.6105C41.4145 10.5963 41.6105 9.70996 42.0025 8.95143C42.3946 8.18865 42.9507 7.59632 43.6709 7.17444C44.3953 6.74831 45.254 6.53524 46.2468 6.53524C47.2397 6.53524 48.0963 6.74831 48.8165 7.17444C49.5409 7.59632 50.0991 8.18865 50.4912 8.95143C50.8832 9.70996 51.0792 10.5963 51.0792 11.6105C51.0792 12.6162 50.8832 13.5004 50.4912 14.2632C50.0991 15.0217 49.5409 15.6141 48.8165 16.0402C48.0963 16.4621 47.2397 16.673 46.2468 16.673ZM46.2596 14.5636C46.7113 14.5636 47.0885 14.4358 47.391 14.1801C47.6936 13.9202 47.9216 13.5665 48.075 13.119C48.2326 12.6716 48.3115 12.1624 48.3115 11.5913C48.3115 11.0203 48.2326 10.5111 48.075 10.0636C47.9216 9.61621 47.6936 9.26251 47.391 9.00257C47.0885 8.74263 46.7113 8.61265 46.2596 8.61265C45.8037 8.61265 45.4201 8.74263 45.1091 9.00257C44.8022 9.26251 44.57 9.61621 44.4123 10.0636C44.2589 10.5111 44.1822 11.0203 44.1822 11.5913C44.1822 12.1624 44.2589 12.6716 44.4123 13.119C44.57 13.5665 44.8022 13.9202 45.1091 14.1801C45.4201 14.4358 45.8037 14.5636 46.2596 14.5636ZM54.2145 20.1631C53.8694 20.1631 53.5455 20.1354 53.2429 20.08C52.9446 20.0288 52.6975 19.9628 52.5015 19.8818L53.1151 17.8492C53.4347 17.9472 53.7223 18.0004 53.978 18.009C54.238 18.0175 54.4617 17.9578 54.6492 17.83C54.841 17.7021 54.9965 17.4848 55.1158 17.178L55.2756 16.7625L51.7536 6.66308H54.6172L56.6499 13.8733H56.7522L58.804 6.66308H61.6868L57.8708 17.5423C57.6875 18.0708 57.4383 18.531 57.1229 18.923C56.8118 19.3193 56.4177 19.624 55.9404 19.8371C55.4631 20.0544 54.8878 20.1631 54.2145 20.1631ZM66.5304 3.39035H69.6305L72.6156 9.02814H72.7435L75.7286 3.39035H78.8287L74.0538 11.8534V16.4813H71.3053V11.8534L66.5304 3.39035ZM82.6687 16.673C81.6758 16.673 80.8172 16.4621 80.0927 16.0402C79.3726 15.6141 78.8165 15.0217 78.4244 14.2632C78.0324 13.5004 77.8363 12.6162 77.8363 11.6105C77.8363 10.5963 78.0324 9.70996 78.4244 8.95143C78.8165 8.18865 79.3726 7.59632 80.0927 7.17444C80.8172 6.74831 81.6758 6.53524 82.6687 6.53524C83.6616 6.53524 84.5182 6.74831 85.2383 7.17444C85.9628 7.59632 86.521 8.18865 86.913 8.95143C87.3051 9.70996 87.5011 10.5963 87.5011 11.6105C87.5011 12.6162 87.3051 13.5004 86.913 14.2632C86.521 15.0217 85.9628 15.6141 85.2383 16.0402C84.5182 16.4621 83.6616 16.673 82.6687 16.673ZM82.6815 14.5636C83.1332 14.5636 83.5103 14.4358 83.8129 14.1801C84.1155 13.9202 84.3434 13.5665 84.4968 13.119C84.6545 12.6716 84.7334 12.1624 84.7334 11.5913C84.7334 11.0203 84.6545 10.5111 84.4968 10.0636C84.3434 9.61621 84.1155 9.26251 83.8129 9.00257C83.5103 8.74263 83.1332 8.61265 82.6815 8.61265C82.2255 8.61265 81.842 8.74263 81.5309 9.00257C81.2241 9.26251 80.9919 9.61621 80.8342 10.0636C80.6808 10.5111 80.6041 11.0203 80.6041 11.5913C80.6041 12.1624 80.6808 12.6716 80.8342 13.119C80.9919 13.5665 81.2241 13.9202 81.5309 14.1801C81.842 14.4358 82.2255 14.5636 82.6815 14.5636ZM95.5679 12.3009V6.66308H98.2909V16.4813H95.6765V14.6979H95.5743C95.3527 15.2732 94.9841 15.7355 94.4684 16.085C93.9571 16.4344 93.3328 16.6091 92.5956 16.6091C91.9393 16.6091 91.3619 16.46 90.8633 16.1617C90.3647 15.8634 89.9748 15.4394 89.6936 14.8896C89.4166 14.3399 89.276 13.6815 89.2717 12.9145V6.66308H91.9947V12.4287C91.999 13.0083 92.1545 13.4663 92.4613 13.803C92.7682 14.1396 93.1794 14.308 93.695 14.308C94.0231 14.308 94.3299 14.2334 94.6155 14.0842C94.901 13.9308 95.1311 13.705 95.3058 13.4067C95.4848 13.1084 95.5721 12.7398 95.5679 12.3009ZM100.469 16.4813V6.66308H103.109V8.37615H103.211C103.39 7.76677 103.691 7.30655 104.112 6.99547C104.534 6.68013 105.02 6.52246 105.57 6.52246C105.706 6.52246 105.853 6.53098 106.011 6.54802C106.169 6.56507 106.307 6.58851 106.426 6.61834V9.03453C106.299 8.99618 106.122 8.96209 105.896 8.93226C105.67 8.90243 105.463 8.88751 105.276 8.88751C104.875 8.88751 104.517 8.97487 104.202 9.14959C103.891 9.32004 103.644 9.55868 103.46 9.86549C103.281 10.1723 103.192 10.526 103.192 10.9266V16.4813H100.469ZM112.051 16.4813V3.39035H117.216C118.209 3.39035 119.055 3.57998 119.754 3.95924C120.453 4.33424 120.985 4.85626 121.352 5.5253C121.723 6.19007 121.908 6.95711 121.908 7.82643C121.908 8.69575 121.72 9.4628 121.345 10.1276C120.97 10.7923 120.427 11.3101 119.715 11.6808C119.008 12.0516 118.152 12.2369 117.146 12.2369H113.854V10.0189H116.698C117.231 10.0189 117.67 9.92728 118.015 9.74405C118.365 9.55655 118.625 9.29873 118.795 8.97061C118.97 8.63822 119.057 8.25683 119.057 7.82643C119.057 7.39177 118.97 7.01251 118.795 6.68865C118.625 6.36052 118.365 6.10697 118.015 5.92799C117.666 5.74476 117.223 5.65314 116.686 5.65314H114.819V16.4813H112.051ZM125.336 20.1631C124.99 20.1631 124.667 20.1354 124.364 20.08C124.066 20.0288 123.819 19.9628 123.623 19.8818L124.236 17.8492C124.556 17.9472 124.843 18.0004 125.099 18.009C125.359 18.0175 125.583 17.9578 125.77 17.83C125.962 17.7021 126.118 17.4848 126.237 17.178L126.397 16.7625L122.875 6.66308H125.738L127.771 13.8733H127.873L129.925 6.66308H132.808L128.992 17.5423C128.809 18.0708 128.559 18.531 128.244 18.923C127.933 19.3193 127.539 19.624 127.061 19.8371C126.584 20.0544 126.009 20.1631 125.336 20.1631ZM139.424 6.66308V8.70853H133.511V6.66308H139.424ZM134.853 4.31081H137.576V13.4642C137.576 13.7156 137.615 13.9117 137.691 14.0523C137.768 14.1886 137.875 14.2845 138.011 14.3399C138.152 14.3953 138.314 14.423 138.497 14.423C138.625 14.423 138.753 14.4124 138.88 14.3911C139.008 14.3655 139.106 14.3463 139.174 14.3335L139.603 16.3598C139.466 16.4024 139.275 16.4514 139.027 16.5068C138.78 16.5665 138.48 16.6027 138.126 16.6155C137.47 16.6411 136.895 16.5537 136.4 16.3534C135.91 16.1531 135.529 15.8421 135.256 15.4202C134.983 14.9983 134.849 14.4656 134.853 13.8222V4.31081ZM144.131 10.8051V16.4813H141.408V3.39035H144.055V8.39532H144.17C144.391 7.81578 144.749 7.36194 145.244 7.03382C145.738 6.70143 146.358 6.53524 147.104 6.53524C147.786 6.53524 148.38 6.68439 148.887 6.98268C149.398 7.27672 149.795 7.70072 150.076 8.2547C150.362 8.80442 150.502 9.4628 150.498 10.2298V16.4813H147.775V10.7156C147.779 10.1105 147.626 9.63964 147.315 9.30299C147.008 8.96635 146.577 8.79802 146.023 8.79802C145.653 8.79802 145.325 8.87686 145.039 9.03453C144.758 9.1922 144.536 9.42231 144.374 9.72487C144.217 10.0232 144.136 10.3833 144.131 10.8051ZM157.077 16.673C156.084 16.673 155.225 16.4621 154.501 16.0402C153.781 15.6141 153.225 15.0217 152.833 14.2632C152.441 13.5004 152.245 12.6162 152.245 11.6105C152.245 10.5963 152.441 9.70996 152.833 8.95143C153.225 8.18865 153.781 7.59632 154.501 7.17444C155.225 6.74831 156.084 6.53524 157.077 6.53524C158.07 6.53524 158.926 6.74831 159.647 7.17444C160.371 7.59632 160.929 8.18865 161.321 8.95143C161.713 9.70996 161.909 10.5963 161.909 11.6105C161.909 12.6162 161.713 13.5004 161.321 14.2632C160.929 15.0217 160.371 15.6141 159.647 16.0402C158.926 16.4621 158.07 16.673 157.077 16.673ZM157.09 14.5636C157.541 14.5636 157.919 14.4358 158.221 14.1801C158.524 13.9202 158.752 13.5665 158.905 13.119C159.063 12.6716 159.142 12.1624 159.142 11.5913C159.142 11.0203 159.063 10.5111 158.905 10.0636C158.752 9.61621 158.524 9.26251 158.221 9.00257C157.919 8.74263 157.541 8.61265 157.09 8.61265C156.634 8.61265 156.25 8.74263 155.939 9.00257C155.632 9.26251 155.4 9.61621 155.242 10.0636C155.089 10.5111 155.012 11.0203 155.012 11.5913C155.012 12.1624 155.089 12.6716 155.242 13.119C155.4 13.5665 155.632 13.9202 155.939 14.1801C156.25 14.4358 156.634 14.5636 157.09 14.5636ZM166.403 10.8051V16.4813H163.68V6.66308H166.275V8.39532H166.39C166.607 7.8243 166.972 7.3726 167.483 7.04021C167.995 6.70356 168.615 6.53524 169.343 6.53524C170.025 6.53524 170.62 6.68439 171.127 6.98268C171.634 7.28098 172.028 7.70711 172.309 8.26109C172.59 8.81081 172.731 9.46706 172.731 10.2298V16.4813H170.008V10.7156C170.012 10.1148 169.859 9.64603 169.548 9.30939C169.237 8.96848 168.808 8.79802 168.263 8.79802C167.897 8.79802 167.573 8.87686 167.291 9.03453C167.014 9.1922 166.797 9.42231 166.639 9.72487C166.486 10.0232 166.407 10.3833 166.403 10.8051ZM181.351 16.4813H178.385L182.904 3.39035H186.471L190.984 16.4813H188.018L184.739 6.38183H184.636L181.351 16.4813ZM181.165 11.3357H188.171V13.4962H181.165V11.3357ZM192.508 20.1631V6.66308H195.193V8.31223H195.314C195.433 8.04802 195.606 7.77956 195.832 7.50683C196.062 7.22984 196.36 6.99973 196.727 6.81649C197.098 6.62899 197.558 6.53524 198.107 6.53524C198.823 6.53524 199.484 6.72274 200.089 7.09774C200.694 7.46848 201.178 8.02885 201.54 8.77885C201.902 9.52459 202.083 10.46 202.083 11.585C202.083 12.6801 201.906 13.6048 201.553 14.3591C201.203 15.1091 200.726 15.678 200.121 16.0658C199.52 16.4493 198.847 16.6411 198.101 16.6411C197.573 16.6411 197.123 16.5537 196.752 16.379C196.386 16.2043 196.085 15.9848 195.851 15.7206C195.617 15.4521 195.438 15.1815 195.314 14.9088H195.231V20.1631H192.508ZM195.174 11.5722C195.174 12.156 195.254 12.6652 195.416 13.0999C195.578 13.5345 195.813 13.8733 196.12 14.1162C196.426 14.3548 196.799 14.4742 197.238 14.4742C197.681 14.4742 198.056 14.3527 198.363 14.1098C198.67 13.8627 198.902 13.5217 199.06 13.0871C199.222 12.6482 199.303 12.1432 199.303 11.5722C199.303 11.0054 199.224 10.5068 199.066 10.0764C198.909 9.64603 198.676 9.30939 198.37 9.06649C198.063 8.82359 197.686 8.70214 197.238 8.70214C196.795 8.70214 196.42 8.81933 196.113 9.05371C195.811 9.28808 195.578 9.62047 195.416 10.0509C195.254 10.4813 195.174 10.9884 195.174 11.5722ZM203.899 20.1631V6.66308H206.583V8.31223H206.705C206.824 8.04802 206.997 7.77956 207.223 7.50683C207.453 7.22984 207.751 6.99973 208.117 6.81649C208.488 6.62899 208.948 6.53524 209.498 6.53524C210.214 6.53524 210.875 6.72274 211.48 7.09774C212.085 7.46848 212.568 8.02885 212.931 8.77885C213.293 9.52459 213.474 10.46 213.474 11.585C213.474 12.6801 213.297 13.6048 212.943 14.3591C212.594 15.1091 212.117 15.678 211.512 16.0658C210.911 16.4493 210.237 16.6411 209.492 16.6411C208.963 16.6411 208.514 16.5537 208.143 16.379C207.777 16.2043 207.476 15.9848 207.242 15.7206C207.007 15.4521 206.828 15.1815 206.705 14.9088H206.622V20.1631H203.899ZM206.564 11.5722C206.564 12.156 206.645 12.6652 206.807 13.0999C206.969 13.5345 207.203 13.8733 207.51 14.1162C207.817 14.3548 208.19 14.4742 208.629 14.4742C209.072 14.4742 209.447 14.3527 209.754 14.1098C210.061 13.8627 210.293 13.5217 210.451 13.0871C210.612 12.6482 210.693 12.1432 210.693 11.5722C210.693 11.0054 210.615 10.5068 210.457 10.0764C210.299 9.64603 210.067 9.30939 209.76 9.06649C209.453 8.82359 209.076 8.70214 208.629 8.70214C208.186 8.70214 207.811 8.81933 207.504 9.05371C207.201 9.28808 206.969 9.62047 206.807 10.0509C206.645 10.4813 206.564 10.9884 206.564 11.5722ZM218.012 3.39035V16.4813H215.289V3.39035H218.012ZM220.194 16.4813V6.66308H222.917V16.4813H220.194ZM221.561 5.39746C221.157 5.39746 220.809 5.26322 220.52 4.99476C220.234 4.72203 220.091 4.39603 220.091 4.01677C220.091 3.64177 220.234 3.32004 220.52 3.05157C220.809 2.77885 221.157 2.64248 221.561 2.64248C221.966 2.64248 222.311 2.77885 222.597 3.05157C222.887 3.32004 223.032 3.64177 223.032 4.01677C223.032 4.39603 222.887 4.72203 222.597 4.99476C222.311 5.26322 221.966 5.39746 221.561 5.39746ZM229.534 16.673C228.528 16.673 227.663 16.46 226.939 16.0338C226.219 15.6034 225.665 15.0068 225.277 14.244C224.893 13.4813 224.702 12.6034 224.702 11.6105C224.702 10.6048 224.895 9.72274 225.283 8.96422C225.675 8.20143 226.231 7.60697 226.952 7.18084C227.672 6.75044 228.528 6.53524 229.521 6.53524C230.378 6.53524 231.128 6.69078 231.771 7.00186C232.415 7.31294 232.924 7.74973 233.299 8.31223C233.674 8.87473 233.881 9.53524 233.919 10.2938H231.349C231.277 9.80371 231.085 9.40953 230.774 9.11123C230.467 8.80868 230.064 8.6574 229.566 8.6574C229.144 8.6574 228.775 8.77246 228.46 9.00257C228.149 9.22842 227.906 9.55868 227.731 9.99334C227.557 10.428 227.469 10.9543 227.469 11.5722C227.469 12.1986 227.555 12.7313 227.725 13.1702C227.9 13.6091 228.145 13.9436 228.46 14.1737C228.775 14.4038 229.144 14.5189 229.566 14.5189C229.877 14.5189 230.156 14.455 230.403 14.3271C230.655 14.1993 230.861 14.0139 231.023 13.771C231.189 13.5239 231.298 13.2277 231.349 12.8825H233.919C233.876 13.6325 233.672 14.2931 233.305 14.8641C232.943 15.4308 232.442 15.874 231.803 16.1936C231.164 16.5132 230.408 16.673 229.534 16.673ZM238.462 16.6666C237.836 16.6666 237.277 16.558 236.787 16.3406C236.297 16.119 235.909 15.7931 235.624 15.3627C235.343 14.928 235.202 14.3868 235.202 13.7391C235.202 13.1936 235.302 12.7355 235.503 12.3648C235.703 11.994 235.976 11.6958 236.321 11.4699C236.666 11.244 237.058 11.0736 237.497 10.9585C237.94 10.8435 238.405 10.7625 238.89 10.7156C239.461 10.656 239.922 10.6006 240.271 10.5494C240.62 10.494 240.874 10.4131 241.032 10.3065C241.189 10.2 241.268 10.0423 241.268 9.83353V9.79518C241.268 9.39035 241.14 9.07714 240.885 8.85555C240.633 8.63396 240.275 8.52317 239.811 8.52317C239.321 8.52317 238.931 8.63183 238.641 8.84916C238.351 9.06223 238.159 9.33069 238.066 9.65456L235.547 9.45001C235.675 8.85342 235.927 8.3378 236.302 7.90314C236.677 7.46422 237.16 7.12757 237.753 6.89319C238.349 6.65456 239.039 6.53524 239.824 6.53524C240.369 6.53524 240.891 6.59916 241.39 6.727C241.892 6.85484 242.338 7.05299 242.726 7.32146C243.118 7.58993 243.427 7.9351 243.652 8.35697C243.878 8.77459 243.991 9.2753 243.991 9.8591V16.4813H241.409V15.1198H241.332C241.174 15.4266 240.963 15.6972 240.699 15.9315C240.435 16.1617 240.118 16.3428 239.747 16.4749C239.376 16.6027 238.948 16.6666 238.462 16.6666ZM239.242 14.7874C239.642 14.7874 239.996 14.7085 240.303 14.5509C240.61 14.3889 240.851 14.1716 241.025 13.8989C241.2 13.6261 241.287 13.3172 241.287 12.972V11.9301C241.202 11.9855 241.085 12.0367 240.936 12.0835C240.791 12.1261 240.627 12.1666 240.444 12.205C240.26 12.2391 240.077 12.271 239.894 12.3009C239.711 12.3264 239.544 12.3499 239.395 12.3712C239.076 12.4181 238.797 12.4926 238.558 12.5949C238.319 12.6972 238.134 12.8357 238.002 13.0104C237.87 13.1808 237.804 13.3939 237.804 13.6496C237.804 14.0203 237.938 14.3037 238.206 14.4997C238.479 14.6915 238.824 14.7874 239.242 14.7874ZM251.326 6.66308V8.70853H245.413V6.66308H251.326ZM246.756 4.31081H249.479V13.4642C249.479 13.7156 249.517 13.9117 249.594 14.0523C249.67 14.1886 249.777 14.2845 249.913 14.3399C250.054 14.3953 250.216 14.423 250.399 14.423C250.527 14.423 250.655 14.4124 250.783 14.3911C250.911 14.3655 251.009 14.3463 251.077 14.3335L251.505 16.3598C251.369 16.4024 251.177 16.4514 250.93 16.5068C250.683 16.5665 250.382 16.6027 250.028 16.6155C249.372 16.6411 248.797 16.5537 248.303 16.3534C247.813 16.1531 247.431 15.8421 247.158 15.4202C246.886 14.9983 246.751 14.4656 246.756 13.8222V4.31081ZM253.1 16.4813V6.66308H255.823V16.4813H253.1ZM254.468 5.39746C254.063 5.39746 253.716 5.26322 253.426 4.99476C253.14 4.72203 252.998 4.39603 252.998 4.01677C252.998 3.64177 253.14 3.32004 253.426 3.05157C253.716 2.77885 254.063 2.64248 254.468 2.64248C254.873 2.64248 255.218 2.77885 255.503 3.05157C255.793 3.32004 255.938 3.64177 255.938 4.01677C255.938 4.39603 255.793 4.72203 255.503 4.99476C255.218 5.26322 254.873 5.39746 254.468 5.39746ZM262.44 16.673C261.447 16.673 260.589 16.4621 259.864 16.0402C259.144 15.6141 258.588 15.0217 258.196 14.2632C257.804 13.5004 257.608 12.6162 257.608 11.6105C257.608 10.5963 257.804 9.70996 258.196 8.95143C258.588 8.18865 259.144 7.59632 259.864 7.17444C260.589 6.74831 261.447 6.53524 262.44 6.53524C263.433 6.53524 264.29 6.74831 265.01 7.17444C265.734 7.59632 266.292 8.18865 266.685 8.95143C267.077 9.70996 267.273 10.5963 267.273 11.6105C267.273 12.6162 267.077 13.5004 266.685 14.2632C266.292 15.0217 265.734 15.6141 265.01 16.0402C264.29 16.4621 263.433 16.673 262.44 16.673ZM262.453 14.5636C262.905 14.5636 263.282 14.4358 263.584 14.1801C263.887 13.9202 264.115 13.5665 264.268 13.119C264.426 12.6716 264.505 12.1624 264.505 11.5913C264.505 11.0203 264.426 10.5111 264.268 10.0636C264.115 9.61621 263.887 9.26251 263.584 9.00257C263.282 8.74263 262.905 8.61265 262.453 8.61265C261.997 8.61265 261.614 8.74263 261.302 9.00257C260.996 9.26251 260.763 9.61621 260.606 10.0636C260.452 10.5111 260.376 11.0203 260.376 11.5913C260.376 12.1624 260.452 12.6716 260.606 13.119C260.763 13.5665 260.996 13.9202 261.302 14.1801C261.614 14.4358 261.997 14.5636 262.453 14.5636ZM271.766 10.8051V16.4813H269.043V6.66308H271.638V8.39532H271.753C271.971 7.8243 272.335 7.3726 272.846 7.04021C273.358 6.70356 273.978 6.53524 274.707 6.53524C275.388 6.53524 275.983 6.68439 276.49 6.98268C276.997 7.28098 277.391 7.70711 277.672 8.26109C277.954 8.81081 278.094 9.46706 278.094 10.2298V16.4813H275.371V10.7156C275.376 10.1148 275.222 9.64603 274.911 9.30939C274.6 8.96848 274.172 8.79802 273.626 8.79802C273.26 8.79802 272.936 8.87686 272.655 9.03453C272.378 9.1922 272.16 9.42231 272.003 9.72487C271.849 10.0232 271.77 10.3833 271.766 10.8051ZM289.629 6.66308V8.70853H283.716V6.66308H289.629ZM285.058 4.31081H287.781V13.4642C287.781 13.7156 287.82 13.9117 287.897 14.0523C287.973 14.1886 288.08 14.2845 288.216 14.3399C288.357 14.3953 288.519 14.423 288.702 14.423C288.83 14.423 288.958 14.4124 289.085 14.3911C289.213 14.3655 289.311 14.3463 289.379 14.3335L289.808 16.3598C289.671 16.4024 289.48 16.4514 289.232 16.5068C288.985 16.5665 288.685 16.6027 288.331 16.6155C287.675 16.6411 287.1 16.5537 286.605 16.3534C286.115 16.1531 285.734 15.8421 285.461 15.4202C285.188 14.9983 285.054 14.4656 285.058 13.8222V4.31081ZM295.733 16.673C294.74 16.673 293.882 16.4621 293.157 16.0402C292.437 15.6141 291.881 15.0217 291.489 14.2632C291.097 13.5004 290.901 12.6162 290.901 11.6105C290.901 10.5963 291.097 9.70996 291.489 8.95143C291.881 8.18865 292.437 7.59632 293.157 7.17444C293.882 6.74831 294.74 6.53524 295.733 6.53524C296.726 6.53524 297.583 6.74831 298.303 7.17444C299.027 7.59632 299.585 8.18865 299.977 8.95143C300.37 9.70996 300.566 10.5963 300.566 11.6105C300.566 12.6162 300.37 13.5004 299.977 14.2632C299.585 15.0217 299.027 15.6141 298.303 16.0402C297.583 16.4621 296.726 16.673 295.733 16.673ZM295.746 14.5636C296.198 14.5636 296.575 14.4358 296.877 14.1801C297.18 13.9202 297.408 13.5665 297.561 13.119C297.719 12.6716 297.798 12.1624 297.798 11.5913C297.798 11.0203 297.719 10.5111 297.561 10.0636C297.408 9.61621 297.18 9.26251 296.877 9.00257C296.575 8.74263 296.198 8.61265 295.746 8.61265C295.29 8.61265 294.906 8.74263 294.595 9.00257C294.289 9.26251 294.056 9.61621 293.899 10.0636C293.745 10.5111 293.669 11.0203 293.669 11.5913C293.669 12.1624 293.745 12.6716 293.899 13.119C294.056 13.5665 294.289 13.9202 294.595 14.1801C294.906 14.4358 295.29 14.5636 295.746 14.5636ZM306.553 16.4813V3.39035H309.321V9.16237H309.494L314.205 3.39035H317.522L312.664 9.25186L317.58 16.4813H314.269L310.683 11.0992L309.321 12.7611V16.4813H306.553ZM319.528 16.4813V6.66308H322.251V16.4813H319.528ZM320.895 5.39746C320.491 5.39746 320.143 5.26322 319.854 4.99476C319.568 4.72203 319.425 4.39603 319.425 4.01677C319.425 3.64177 319.568 3.32004 319.854 3.05157C320.143 2.77885 320.491 2.64248 320.895 2.64248C321.3 2.64248 321.645 2.77885 321.931 3.05157C322.221 3.32004 322.366 3.64177 322.366 4.01677C322.366 4.39603 322.221 4.72203 321.931 4.99476C321.645 5.26322 321.3 5.39746 320.895 5.39746ZM327.155 10.8051V16.4813H324.432V6.66308H327.027V8.39532H327.142C327.359 7.8243 327.724 7.3726 328.235 7.04021C328.746 6.70356 329.367 6.53524 330.095 6.53524C330.777 6.53524 331.371 6.68439 331.879 6.98268C332.386 7.28098 332.78 7.70711 333.061 8.26109C333.342 8.81081 333.483 9.46706 333.483 10.2298V16.4813H330.76V10.7156C330.764 10.1148 330.611 9.64603 330.3 9.30939C329.989 8.96848 329.56 8.79802 329.015 8.79802C328.648 8.79802 328.325 8.87686 328.043 9.03453C327.766 9.1922 327.549 9.42231 327.391 9.72487C327.238 10.0232 327.159 10.3833 327.155 10.8051ZM343.798 9.4628L341.305 9.61621C341.263 9.40314 341.171 9.21138 341.03 9.04092C340.89 8.86621 340.704 8.72771 340.474 8.62544C340.248 8.5189 339.978 8.46564 339.663 8.46564C339.241 8.46564 338.885 8.55513 338.595 8.7341C338.305 8.90882 338.16 9.14319 338.16 9.43723C338.16 9.6716 338.254 9.86976 338.442 10.0317C338.629 10.1936 338.951 10.3236 339.407 10.4216L341.184 10.7796C342.138 10.9756 342.85 11.2909 343.319 11.7256C343.788 12.1602 344.022 12.7313 344.022 13.4386C344.022 14.0821 343.832 14.6467 343.453 15.1325C343.078 15.6183 342.562 15.9976 341.906 16.2703C341.254 16.5388 340.502 16.673 339.65 16.673C338.35 16.673 337.314 16.4024 336.543 15.8612C335.776 15.3158 335.327 14.5743 335.194 13.6368L337.873 13.4962C337.954 13.8925 338.15 14.195 338.461 14.4038C338.772 14.6084 339.17 14.7107 339.656 14.7107C340.133 14.7107 340.517 14.619 340.807 14.4358C341.101 14.2483 341.25 14.0075 341.254 13.7135C341.25 13.4663 341.145 13.2639 340.941 13.1063C340.736 12.9443 340.421 12.8208 339.995 12.7355L338.295 12.3967C337.336 12.205 336.622 11.8726 336.153 11.3996C335.689 10.9266 335.457 10.3236 335.457 9.59064C335.457 8.95996 335.627 8.41663 335.968 7.96067C336.313 7.5047 336.797 7.15314 337.419 6.90598C338.045 6.65882 338.778 6.53524 339.618 6.53524C340.858 6.53524 341.834 6.79731 342.545 7.32146C343.261 7.84561 343.679 8.55939 343.798 9.4628ZM350.959 6.66308V8.70853H345.046V6.66308H350.959ZM346.389 4.31081H349.112V13.4642C349.112 13.7156 349.15 13.9117 349.227 14.0523C349.303 14.1886 349.41 14.2845 349.546 14.3399C349.687 14.3953 349.849 14.423 350.032 14.423C350.16 14.423 350.288 14.4124 350.416 14.3911C350.543 14.3655 350.641 14.3463 350.71 14.3335L351.138 16.3598C351.001 16.4024 350.81 16.4514 350.563 16.5068C350.315 16.5665 350.015 16.6027 349.661 16.6155C349.005 16.6411 348.43 16.5537 347.935 16.3534C347.445 16.1531 347.064 15.8421 346.791 15.4202C346.519 14.9983 346.384 14.4656 346.389 13.8222V4.31081ZM355.532 16.6666C354.906 16.6666 354.348 16.558 353.858 16.3406C353.368 16.119 352.98 15.7931 352.694 15.3627C352.413 14.928 352.272 14.3868 352.272 13.7391C352.272 13.1936 352.373 12.7355 352.573 12.3648C352.773 11.994 353.046 11.6958 353.391 11.4699C353.736 11.244 354.128 11.0736 354.567 10.9585C355.01 10.8435 355.475 10.7625 355.961 10.7156C356.532 10.656 356.992 10.6006 357.341 10.5494C357.691 10.494 357.944 10.4131 358.102 10.3065C358.26 10.2 358.338 10.0423 358.338 9.83353V9.79518C358.338 9.39035 358.211 9.07714 357.955 8.85555C357.704 8.63396 357.346 8.52317 356.881 8.52317C356.391 8.52317 356.001 8.63183 355.711 8.84916C355.422 9.06223 355.23 9.33069 355.136 9.65456L352.618 9.45001C352.745 8.85342 352.997 8.3378 353.372 7.90314C353.747 7.46422 354.231 7.12757 354.823 6.89319C355.419 6.65456 356.11 6.53524 356.894 6.53524C357.439 6.53524 357.961 6.59916 358.46 6.727C358.963 6.85484 359.408 7.05299 359.796 7.32146C360.188 7.58993 360.497 7.9351 360.723 8.35697C360.949 8.77459 361.061 9.2753 361.061 9.8591V16.4813H358.479V15.1198H358.402C358.245 15.4266 358.034 15.6972 357.77 15.9315C357.505 16.1617 357.188 16.3428 356.817 16.4749C356.446 16.6027 356.018 16.6666 355.532 16.6666ZM356.312 14.7874C356.713 14.7874 357.066 14.7085 357.373 14.5509C357.68 14.3889 357.921 14.1716 358.096 13.8989C358.27 13.6261 358.358 13.3172 358.358 12.972V11.9301C358.272 11.9855 358.155 12.0367 358.006 12.0835C357.861 12.1261 357.697 12.1666 357.514 12.205C357.331 12.2391 357.147 12.271 356.964 12.3009C356.781 12.3264 356.615 12.3499 356.466 12.3712C356.146 12.4181 355.867 12.4926 355.628 12.5949C355.39 12.6972 355.204 12.8357 355.072 13.0104C354.94 13.1808 354.874 13.3939 354.874 13.6496C354.874 14.0203 355.008 14.3037 355.277 14.4997C355.549 14.6915 355.895 14.7874 356.312 14.7874ZM367.34 16.4813V6.66308H370.063V16.4813H367.34ZM368.708 5.39746C368.303 5.39746 367.956 5.26322 367.666 4.99476C367.381 4.72203 367.238 4.39603 367.238 4.01677C367.238 3.64177 367.381 3.32004 367.666 3.05157C367.956 2.77885 368.303 2.64248 368.708 2.64248C369.113 2.64248 369.458 2.77885 369.743 3.05157C370.033 3.32004 370.178 3.64177 370.178 4.01677C370.178 4.39603 370.033 4.72203 369.743 4.99476C369.458 5.26322 369.113 5.39746 368.708 5.39746ZM374.967 10.8051V16.4813H372.244V6.66308H374.84V8.39532H374.955C375.172 7.8243 375.536 7.3726 376.048 7.04021C376.559 6.70356 377.179 6.53524 377.908 6.53524C378.59 6.53524 379.184 6.68439 379.691 6.98268C380.198 7.28098 380.592 7.70711 380.874 8.26109C381.155 8.81081 381.295 9.46706 381.295 10.2298V16.4813H378.572V10.7156C378.577 10.1148 378.423 9.64603 378.112 9.30939C377.801 8.96848 377.373 8.79802 376.827 8.79802C376.461 8.79802 376.137 8.87686 375.856 9.03453C375.579 9.1922 375.362 9.42231 375.204 9.72487C375.05 10.0232 374.972 10.3833 374.967 10.8051ZM387.659 3.39035H391.072L394.677 12.1858H394.831L398.436 3.39035H401.849V16.4813H399.164V7.96067H399.056L395.668 16.4173H393.84L390.452 7.92871H390.343V16.4813H387.659V3.39035ZM404.078 16.4813V6.66308H406.801V16.4813H404.078ZM405.446 5.39746C405.041 5.39746 404.694 5.26322 404.404 4.99476C404.119 4.72203 403.976 4.39603 403.976 4.01677C403.976 3.64177 404.119 3.32004 404.404 3.05157C404.694 2.77885 405.041 2.64248 405.446 2.64248C405.851 2.64248 406.196 2.77885 406.482 3.05157C406.772 3.32004 406.916 3.64177 406.916 4.01677C406.916 4.39603 406.772 4.72203 406.482 4.99476C406.196 5.26322 405.851 5.39746 405.446 5.39746ZM411.706 10.8051V16.4813H408.983V6.66308H411.578V8.39532H411.693C411.91 7.8243 412.275 7.3726 412.786 7.04021C413.297 6.70356 413.917 6.53524 414.646 6.53524C415.328 6.53524 415.922 6.68439 416.429 6.98268C416.936 7.28098 417.331 7.70711 417.612 8.26109C417.893 8.81081 418.034 9.46706 418.034 10.2298V16.4813H415.311V10.7156C415.315 10.1148 415.162 9.64603 414.851 9.30939C414.539 8.96848 414.111 8.79802 413.566 8.79802C413.199 8.79802 412.875 8.87686 412.594 9.03453C412.317 9.1922 412.1 9.42231 411.942 9.72487C411.789 10.0232 411.71 10.3833 411.706 10.8051ZM426.476 12.3009V6.66308H429.199V16.4813H426.585V14.6979H426.482C426.261 15.2732 425.892 15.7355 425.377 16.085C424.865 16.4344 424.241 16.6091 423.504 16.6091C422.848 16.6091 422.27 16.46 421.772 16.1617C421.273 15.8634 420.883 15.4394 420.602 14.8896C420.325 14.3399 420.184 13.6815 420.18 12.9145V6.66308H422.903V12.4287C422.907 13.0083 423.063 13.4663 423.37 13.803C423.676 14.1396 424.088 14.308 424.603 14.308C424.931 14.308 425.238 14.2334 425.524 14.0842C425.809 13.9308 426.039 13.705 426.214 13.4067C426.393 13.1084 426.48 12.7398 426.476 12.3009ZM436.599 6.66308V8.70853H430.687V6.66308H436.599ZM432.029 4.31081H434.752V13.4642C434.752 13.7156 434.791 13.9117 434.867 14.0523C434.944 14.1886 435.05 14.2845 435.187 14.3399C435.327 14.3953 435.489 14.423 435.673 14.423C435.8 14.423 435.928 14.4124 436.056 14.3911C436.184 14.3655 436.282 14.3463 436.35 14.3335L436.778 16.3598C436.642 16.4024 436.45 16.4514 436.203 16.5068C435.956 16.5665 435.656 16.6027 435.302 16.6155C434.646 16.6411 434.07 16.5537 433.576 16.3534C433.086 16.1531 432.705 15.8421 432.432 15.4202C432.159 14.9983 432.025 14.4656 432.029 13.8222V4.31081ZM442.742 16.673C441.732 16.673 440.863 16.4685 440.134 16.0594C439.41 15.646 438.852 15.0622 438.46 14.308C438.068 13.5494 437.871 12.6524 437.871 11.6169C437.871 10.607 438.068 9.72061 438.46 8.95782C438.852 8.19504 439.403 7.60058 440.115 7.17444C440.831 6.74831 441.67 6.53524 442.634 6.53524C443.281 6.53524 443.884 6.63964 444.443 6.84845C445.005 7.05299 445.495 7.36194 445.913 7.7753C446.335 8.18865 446.663 8.70853 446.897 9.33496C447.131 9.95711 447.249 10.6858 447.249 11.521V12.2689H438.958V10.5814H444.685C444.685 10.1894 444.6 9.84206 444.43 9.5395C444.259 9.23694 444.023 9.00044 443.72 8.82998C443.422 8.65527 443.075 8.56791 442.678 8.56791C442.265 8.56791 441.898 8.66379 441.579 8.85555C441.264 9.04305 441.016 9.2966 440.837 9.61621C440.658 9.93155 440.567 10.2831 440.563 10.6709V12.2753C440.563 12.7611 440.652 13.1808 440.831 13.5345C441.014 13.8882 441.272 14.1609 441.604 14.3527C441.937 14.5445 442.331 14.6404 442.787 14.6404C443.09 14.6404 443.367 14.5977 443.618 14.5125C443.869 14.4273 444.085 14.2994 444.264 14.129C444.443 13.9585 444.579 13.7497 444.673 13.5026L447.191 13.6688C447.063 14.2739 446.801 14.8023 446.405 15.254C446.013 15.7014 445.506 16.0509 444.884 16.3023C444.266 16.5494 443.552 16.673 442.742 16.673ZM457.195 9.4628L454.702 9.61621C454.659 9.40314 454.568 9.21138 454.427 9.04092C454.286 8.86621 454.101 8.72771 453.871 8.62544C453.645 8.5189 453.374 8.46564 453.059 8.46564C452.637 8.46564 452.281 8.55513 451.992 8.7341C451.702 8.90882 451.557 9.14319 451.557 9.43723C451.557 9.6716 451.651 9.86976 451.838 10.0317C452.026 10.1936 452.347 10.3236 452.803 10.4216L454.58 10.7796C455.535 10.9756 456.246 11.2909 456.715 11.7256C457.184 12.1602 457.418 12.7313 457.418 13.4386C457.418 14.0821 457.229 14.6467 456.849 15.1325C456.474 15.6183 455.959 15.9976 455.303 16.2703C454.651 16.5388 453.898 16.673 453.046 16.673C451.746 16.673 450.711 16.4024 449.94 15.8612C449.173 15.3158 448.723 14.5743 448.591 13.6368L451.269 13.4962C451.35 13.8925 451.546 14.195 451.857 14.4038C452.168 14.6084 452.567 14.7107 453.053 14.7107C453.53 14.7107 453.913 14.619 454.203 14.4358C454.497 14.2483 454.646 14.0075 454.651 13.7135C454.646 13.4663 454.542 13.2639 454.337 13.1063C454.133 12.9443 453.818 12.8208 453.391 12.7355L451.691 12.3967C450.732 12.205 450.019 11.8726 449.55 11.3996C449.085 10.9266 448.853 10.3236 448.853 9.59064C448.853 8.95996 449.023 8.41663 449.364 7.96067C449.71 7.5047 450.193 7.15314 450.815 6.90598C451.442 6.65882 452.175 6.53524 453.014 6.53524C454.254 6.53524 455.23 6.79731 455.942 7.32146C456.658 7.84561 457.075 8.55939 457.195 9.4628ZM460.725 16.6475C460.303 16.6475 459.941 16.4983 459.638 16.2C459.34 15.8975 459.191 15.5352 459.191 15.1134C459.191 14.6958 459.34 14.3378 459.638 14.0395C459.941 13.7412 460.303 13.5921 460.725 13.5921C461.134 13.5921 461.492 13.7412 461.799 14.0395C462.105 14.3378 462.259 14.6958 462.259 15.1134C462.259 15.3946 462.186 15.6524 462.041 15.8868C461.901 16.1169 461.715 16.3023 461.485 16.4429C461.255 16.5793 461.002 16.6475 460.725 16.6475ZM475.198 7.15527C475.147 6.63964 474.927 6.23907 474.539 5.95356C474.152 5.66805 473.625 5.5253 472.961 5.5253C472.509 5.5253 472.128 5.58922 471.816 5.71706C471.505 5.84064 471.267 6.01322 471.101 6.23481C470.939 6.4564 470.858 6.70782 470.858 6.98907C470.849 7.22345 470.898 7.428 471.005 7.60271C471.115 7.77743 471.267 7.92871 471.458 8.05655C471.65 8.18013 471.872 8.28879 472.123 8.38254C472.375 8.47203 472.643 8.54873 472.929 8.61265L474.105 8.8939C474.676 9.02174 475.2 9.1922 475.677 9.40527C476.155 9.61834 476.568 9.88041 476.917 10.1915C477.267 10.5026 477.537 10.869 477.729 11.2909C477.925 11.7128 478.025 12.1965 478.03 12.7419C478.025 13.5431 477.821 14.2377 477.416 14.8257C477.015 15.4095 476.436 15.8634 475.677 16.1872C474.923 16.5068 474.013 16.6666 472.948 16.6666C471.891 16.6666 470.971 16.5047 470.186 16.1808C469.407 15.857 468.797 15.3776 468.358 14.7426C467.924 14.1034 467.696 13.3129 467.674 12.3712H470.353C470.383 12.8101 470.508 13.1766 470.73 13.4706C470.956 13.7604 471.256 13.9798 471.631 14.129C472.01 14.2739 472.439 14.3463 472.916 14.3463C473.385 14.3463 473.792 14.2781 474.137 14.1418C474.486 14.0054 474.757 13.8158 474.949 13.5729C475.14 13.33 475.236 13.0509 475.236 12.7355C475.236 12.4415 475.149 12.1943 474.974 11.994C474.804 11.7938 474.552 11.6233 474.22 11.4827C473.892 11.3421 473.489 11.2142 473.012 11.0992L471.586 10.7412C470.483 10.4727 469.611 10.053 468.972 9.48197C468.333 8.91095 468.015 8.14177 468.02 7.17444C468.015 6.38183 468.226 5.68936 468.652 5.09703C469.083 4.5047 469.673 4.04234 470.423 3.70996C471.173 3.37757 472.025 3.21138 472.98 3.21138C473.951 3.21138 474.799 3.37757 475.524 3.70996C476.253 4.04234 476.819 4.5047 477.224 5.09703C477.629 5.68936 477.838 6.37544 477.851 7.15527H475.198ZM485.062 6.66308V8.70853H479.15V6.66308H485.062ZM480.492 4.31081H483.215V13.4642C483.215 13.7156 483.253 13.9117 483.33 14.0523C483.407 14.1886 483.513 14.2845 483.65 14.3399C483.79 14.3953 483.952 14.423 484.136 14.423C484.263 14.423 484.391 14.4124 484.519 14.3911C484.647 14.3655 484.745 14.3463 484.813 14.3335L485.241 16.3598C485.105 16.4024 484.913 16.4514 484.666 16.5068C484.419 16.5665 484.118 16.6027 483.765 16.6155C483.109 16.6411 482.533 16.5537 482.039 16.3534C481.549 16.1531 481.167 15.8421 480.895 15.4202C480.622 14.9983 480.488 14.4656 480.492 13.8222V4.31081ZM489.636 16.6666C489.009 16.6666 488.451 16.558 487.961 16.3406C487.471 16.119 487.083 15.7931 486.798 15.3627C486.517 14.928 486.376 14.3868 486.376 13.7391C486.376 13.1936 486.476 12.7355 486.676 12.3648C486.877 11.994 487.149 11.6958 487.495 11.4699C487.84 11.244 488.232 11.0736 488.671 10.9585C489.114 10.8435 489.578 10.7625 490.064 10.7156C490.635 10.656 491.095 10.6006 491.445 10.5494C491.794 10.494 492.048 10.4131 492.205 10.3065C492.363 10.2 492.442 10.0423 492.442 9.83353V9.79518C492.442 9.39035 492.314 9.07714 492.058 8.85555C491.807 8.63396 491.449 8.52317 490.985 8.52317C490.495 8.52317 490.105 8.63183 489.815 8.84916C489.525 9.06223 489.333 9.33069 489.24 9.65456L486.721 9.45001C486.849 8.85342 487.1 8.3378 487.475 7.90314C487.85 7.46422 488.334 7.12757 488.926 6.89319C489.523 6.65456 490.213 6.53524 490.997 6.53524C491.543 6.53524 492.065 6.59916 492.563 6.727C493.066 6.85484 493.512 7.05299 493.899 7.32146C494.291 7.58993 494.6 7.9351 494.826 8.35697C495.052 8.77459 495.165 9.2753 495.165 9.8591V16.4813H492.583V15.1198H492.506C492.348 15.4266 492.137 15.6972 491.873 15.9315C491.609 16.1617 491.291 16.3428 490.921 16.4749C490.55 16.6027 490.122 16.6666 489.636 16.6666ZM490.416 14.7874C490.816 14.7874 491.17 14.7085 491.477 14.5509C491.784 14.3889 492.024 14.1716 492.199 13.8989C492.374 13.6261 492.461 13.3172 492.461 12.972V11.9301C492.376 11.9855 492.259 12.0367 492.11 12.0835C491.965 12.1261 491.801 12.1666 491.617 12.205C491.434 12.2391 491.251 12.271 491.068 12.3009C490.884 12.3264 490.718 12.3499 490.569 12.3712C490.25 12.4181 489.97 12.4926 489.732 12.5949C489.493 12.6972 489.308 12.8357 489.176 13.0104C489.044 13.1808 488.977 13.3939 488.977 13.6496C488.977 14.0203 489.112 14.3037 489.38 14.4997C489.653 14.6915 489.998 14.7874 490.416 14.7874ZM497.278 16.4813V6.66308H499.917V8.37615H500.02C500.199 7.76677 500.499 7.30655 500.921 6.99547C501.343 6.68013 501.829 6.52246 502.378 6.52246C502.515 6.52246 502.662 6.53098 502.819 6.54802C502.977 6.56507 503.116 6.58851 503.235 6.61834V9.03453C503.107 8.99618 502.93 8.96209 502.704 8.93226C502.479 8.90243 502.272 8.88751 502.084 8.88751C501.684 8.88751 501.326 8.97487 501.011 9.14959C500.699 9.32004 500.452 9.55868 500.269 9.86549C500.09 10.1723 500.001 10.526 500.001 10.9266V16.4813H497.278ZM510.357 6.66308V8.70853H504.445V6.66308H510.357ZM505.787 4.31081H508.51V13.4642C508.51 13.7156 508.548 13.9117 508.625 14.0523C508.702 14.1886 508.808 14.2845 508.945 14.3399C509.085 14.3953 509.247 14.423 509.43 14.423C509.558 14.423 509.686 14.4124 509.814 14.3911C509.942 14.3655 510.04 14.3463 510.108 14.3335L510.536 16.3598C510.4 16.4024 510.208 16.4514 509.961 16.5068C509.714 16.5665 509.413 16.6027 509.06 16.6155C508.403 16.6411 507.828 16.5537 507.334 16.3534C506.844 16.1531 506.462 15.8421 506.19 15.4202C505.917 14.9983 505.783 14.4656 505.787 13.8222V4.31081ZM518.605 16.4813H515.639L520.158 3.39035H523.725L528.237 16.4813H525.272L521.992 6.38183H521.89L518.605 16.4813ZM518.419 11.3357H525.425V13.4962H518.419V11.3357ZM533.979 16.4813V3.39035H542.647V5.67231H536.747V8.79163H542.071V11.0736H536.747V16.4813H533.979ZM544.299 16.4813V6.66308H546.939V8.37615H547.041C547.22 7.76677 547.521 7.30655 547.943 6.99547C548.364 6.68013 548.85 6.52246 549.4 6.52246C549.536 6.52246 549.683 6.53098 549.841 6.54802C549.999 6.56507 550.137 6.58851 550.256 6.61834V9.03453C550.129 8.99618 549.952 8.96209 549.726 8.93226C549.5 8.90243 549.293 8.88751 549.106 8.88751C548.705 8.88751 548.347 8.97487 548.032 9.14959C547.721 9.32004 547.474 9.55868 547.291 9.86549C547.112 10.1723 547.022 10.526 547.022 10.9266V16.4813H544.299ZM555.682 16.673C554.672 16.673 553.802 16.4685 553.074 16.0594C552.349 15.646 551.791 15.0622 551.399 14.308C551.007 13.5494 550.811 12.6524 550.811 11.6169C550.811 10.607 551.007 9.72061 551.399 8.95782C551.791 8.19504 552.343 7.60058 553.055 7.17444C553.77 6.74831 554.61 6.53524 555.573 6.53524C556.221 6.53524 556.824 6.63964 557.382 6.84845C557.944 7.05299 558.435 7.36194 558.852 7.7753C559.274 8.18865 559.602 8.70853 559.837 9.33496C560.071 9.95711 560.188 10.6858 560.188 11.521V12.2689H551.898V10.5814H557.625C557.625 10.1894 557.54 9.84206 557.369 9.5395C557.199 9.23694 556.962 9.00044 556.66 8.82998C556.361 8.65527 556.014 8.56791 555.618 8.56791C555.204 8.56791 554.838 8.66379 554.518 8.85555C554.203 9.04305 553.956 9.2966 553.777 9.61621C553.598 9.93155 553.506 10.2831 553.502 10.6709V12.2753C553.502 12.7611 553.591 13.1808 553.77 13.5345C553.954 13.8882 554.212 14.1609 554.544 14.3527C554.876 14.5445 555.27 14.6404 555.726 14.6404C556.029 14.6404 556.306 14.5977 556.557 14.5125C556.809 14.4273 557.024 14.2994 557.203 14.129C557.382 13.9585 557.518 13.7497 557.612 13.5026L560.131 13.6688C560.003 14.2739 559.741 14.8023 559.344 15.254C558.952 15.7014 558.445 16.0509 557.823 16.3023C557.205 16.5494 556.491 16.673 555.682 16.673ZM566.439 16.673C565.43 16.673 564.56 16.4685 563.832 16.0594C563.107 15.646 562.549 15.0622 562.157 14.308C561.765 13.5494 561.569 12.6524 561.569 11.6169C561.569 10.607 561.765 9.72061 562.157 8.95782C562.549 8.19504 563.101 7.60058 563.812 7.17444C564.528 6.74831 565.368 6.53524 566.331 6.53524C566.979 6.53524 567.582 6.63964 568.14 6.84845C568.702 7.05299 569.192 7.36194 569.61 7.7753C570.032 8.18865 570.36 8.70853 570.594 9.33496C570.829 9.95711 570.946 10.6858 570.946 11.521V12.2689H562.655V10.5814H568.383C568.383 10.1894 568.297 9.84206 568.127 9.5395C567.957 9.23694 567.72 9.00044 567.417 8.82998C567.119 8.65527 566.772 8.56791 566.376 8.56791C565.962 8.56791 565.596 8.66379 565.276 8.85555C564.961 9.04305 564.714 9.2966 564.535 9.61621C564.356 9.93155 564.264 10.2831 564.26 10.6709V12.2753C564.26 12.7611 564.349 13.1808 564.528 13.5345C564.712 13.8882 564.969 14.1609 565.302 14.3527C565.634 14.5445 566.028 14.6404 566.484 14.6404C566.787 14.6404 567.064 14.5977 567.315 14.5125C567.567 14.4273 567.782 14.2994 567.961 14.129C568.14 13.9585 568.276 13.7497 568.37 13.5026L570.888 13.6688C570.761 14.2739 570.498 14.8023 570.102 15.254C569.71 15.7014 569.203 16.0509 568.581 16.3023C567.963 16.5494 567.249 16.673 566.439 16.673ZM576.441 5.67231V3.39035H587.193V5.67231H583.185V16.4813H580.449V5.67231H576.441ZM587.893 16.4813V6.66308H590.533V8.37615H590.635C590.814 7.76677 591.114 7.30655 591.536 6.99547C591.958 6.68013 592.444 6.52246 592.994 6.52246C593.13 6.52246 593.277 6.53098 593.435 6.54802C593.592 6.56507 593.731 6.58851 593.85 6.61834V9.03453C593.722 8.99618 593.545 8.96209 593.32 8.93226C593.094 8.90243 592.887 8.88751 592.7 8.88751C592.299 8.88751 591.941 8.97487 591.626 9.14959C591.315 9.32004 591.068 9.55868 590.884 9.86549C590.705 10.1723 590.616 10.526 590.616 10.9266V16.4813H587.893ZM595.258 16.4813V6.66308H597.981V16.4813H595.258ZM596.626 5.39746C596.221 5.39746 595.874 5.26322 595.584 4.99476C595.299 4.72203 595.156 4.39603 595.156 4.01677C595.156 3.64177 595.299 3.32004 595.584 3.05157C595.874 2.77885 596.221 2.64248 596.626 2.64248C597.031 2.64248 597.376 2.77885 597.661 3.05157C597.951 3.32004 598.096 3.64177 598.096 4.01677C598.096 4.39603 597.951 4.72203 597.661 4.99476C597.376 5.26322 597.031 5.39746 596.626 5.39746ZM602.962 16.6666C602.336 16.6666 601.777 16.558 601.287 16.3406C600.797 16.119 600.409 15.7931 600.124 15.3627C599.843 14.928 599.702 14.3868 599.702 13.7391C599.702 13.1936 599.802 12.7355 600.003 12.3648C600.203 11.994 600.476 11.6958 600.821 11.4699C601.166 11.244 601.558 11.0736 601.997 10.9585C602.44 10.8435 602.905 10.7625 603.39 10.7156C603.961 10.656 604.422 10.6006 604.771 10.5494C605.12 10.494 605.374 10.4131 605.532 10.3065C605.689 10.2 605.768 10.0423 605.768 9.83353V9.79518C605.768 9.39035 605.64 9.07714 605.385 8.85555C605.133 8.63396 604.775 8.52317 604.311 8.52317C603.821 8.52317 603.431 8.63183 603.141 8.84916C602.851 9.06223 602.659 9.33069 602.566 9.65456L600.047 9.45001C600.175 8.85342 600.427 8.3378 600.802 7.90314C601.177 7.46422 601.66 7.12757 602.253 6.89319C602.849 6.65456 603.539 6.53524 604.324 6.53524C604.869 6.53524 605.391 6.59916 605.89 6.727C606.392 6.85484 606.838 7.05299 607.226 7.32146C607.618 7.58993 607.927 7.9351 608.152 8.35697C608.378 8.77459 608.491 9.2753 608.491 9.8591V16.4813H605.909V15.1198H605.832C605.674 15.4266 605.463 15.6972 605.199 15.9315C604.935 16.1617 604.618 16.3428 604.247 16.4749C603.876 16.6027 603.448 16.6666 602.962 16.6666ZM603.742 14.7874C604.142 14.7874 604.496 14.7085 604.803 14.5509C605.11 14.3889 605.351 14.1716 605.525 13.8989C605.7 13.6261 605.787 13.3172 605.787 12.972V11.9301C605.702 11.9855 605.585 12.0367 605.436 12.0835C605.291 12.1261 605.127 12.1666 604.944 12.205C604.76 12.2391 604.577 12.271 604.394 12.3009C604.211 12.3264 604.044 12.3499 603.895 12.3712C603.576 12.4181 603.297 12.4926 603.058 12.5949C602.819 12.6972 602.634 12.8357 602.502 13.0104C602.37 13.1808 602.304 13.3939 602.304 13.6496C602.304 14.0203 602.438 14.3037 602.706 14.4997C602.979 14.6915 603.324 14.7874 603.742 14.7874ZM613.327 3.39035V16.4813H610.604V3.39035H613.327ZM617.1 16.6475C616.678 16.6475 616.316 16.4983 616.013 16.2C615.715 15.8975 615.566 15.5352 615.566 15.1134C615.566 14.6958 615.715 14.3378 616.013 14.0395C616.316 13.7412 616.678 13.5921 617.1 13.5921C617.509 13.5921 617.867 13.7412 618.174 14.0395C618.48 14.3378 618.634 14.6958 618.634 15.1134C618.634 15.3946 618.561 15.6524 618.416 15.8868C618.276 16.1169 618.09 16.3023 617.86 16.4429C617.63 16.5793 617.377 16.6475 617.1 16.6475Z" fill="white"/>
</svg>
