<svg xmlns="http://www.w3.org/2000/svg" xmlns:xlink="http://www.w3.org/1999/xlink" width="500" zoomAndPan="magnify" viewBox="0 0 375 225" height="300" preserveAspectRatio="xMidYMid meet" version="1.0"><defs><g/><clipPath id="da823d73b9"><path d="M 10.335938 42 L 69 42 L 69 225 L 10.335938 225 Z M 10.335938 42 " clip-rule="nonzero"/></clipPath><clipPath id="69fad0bf0b"><path d="M 306.089844 42 L 364.335938 42 L 364.335938 224.992188 L 306.089844 224.992188 Z M 306.089844 42 " clip-rule="nonzero"/></clipPath></defs><path fill="#0ea5e9" d="M 131.144531 102.597656 C 126.796875 102.597656 122.746094 103.421875 118.992188 105.0625 C 115.234375 106.707031 111.976562 108.921875 109.21875 111.710938 C 106.457031 114.5 104.269531 117.773438 102.65625 121.527344 C 101.042969 125.285156 100.234375 129.277344 100.234375 133.503906 C 100.234375 137.730469 101.042969 141.722656 102.65625 145.480469 C 104.269531 149.234375 106.457031 152.507812 109.21875 155.296875 C 111.976562 158.085938 115.234375 160.300781 118.992188 161.945312 C 122.746094 163.589844 126.796875 164.410156 131.144531 164.410156 C 135.425781 164.410156 139.449219 163.589844 143.207031 161.945312 C 146.960938 160.300781 150.234375 158.070312 153.023438 155.253906 C 155.8125 152.433594 158.011719 149.164062 159.628906 145.433594 C 161.242188 141.707031 162.046875 137.730469 162.046875 133.503906 C 162.046875 129.277344 161.242188 125.300781 159.628906 121.574219 C 158.011719 117.847656 155.8125 114.574219 153.023438 111.753906 C 150.234375 108.9375 146.960938 106.707031 143.207031 105.0625 C 139.449219 103.421875 135.425781 102.597656 131.144531 102.597656 Z M 180.453125 133.503906 C 180.453125 147.238281 175.636719 158.863281 166.011719 168.371094 C 156.265625 178 144.644531 182.8125 131.144531 182.8125 C 117.523438 182.8125 105.898438 178 96.273438 168.371094 C 86.644531 158.746094 81.832031 147.121094 81.832031 133.503906 C 81.832031 119.886719 86.644531 108.265625 96.273438 98.636719 C 105.898438 89.007812 117.523438 84.195312 131.144531 84.195312 C 144.644531 84.195312 156.265625 89.007812 166.011719 98.636719 C 170.824219 103.449219 174.417969 108.761719 176.796875 114.574219 C 179.175781 120.386719 180.390625 126.695312 180.453125 133.503906 " fill-opacity="1" fill-rule="nonzero"/><path fill="#0ea5e9" d="M 243.847656 102.597656 C 239.503906 102.597656 235.453125 103.421875 231.699219 105.0625 C 227.941406 106.707031 224.683594 108.921875 221.925781 111.710938 C 219.164062 114.5 216.976562 117.773438 215.363281 121.527344 C 213.75 125.285156 212.945312 129.277344 212.945312 133.503906 C 212.945312 137.730469 213.75 141.722656 215.363281 145.480469 C 216.976562 149.234375 219.164062 152.507812 221.925781 155.296875 C 224.683594 158.085938 227.941406 160.300781 231.699219 161.945312 C 235.453125 163.589844 239.503906 164.410156 243.847656 164.410156 C 248.132812 164.410156 252.152344 163.589844 255.914062 161.945312 C 259.667969 160.300781 262.941406 158.070312 265.730469 155.253906 C 268.519531 152.433594 270.71875 149.164062 272.332031 145.433594 C 273.945312 141.707031 274.757812 137.730469 274.757812 133.503906 C 274.757812 129.277344 273.945312 125.300781 272.332031 121.574219 C 270.71875 117.847656 268.519531 114.574219 265.730469 111.753906 C 262.941406 108.9375 259.667969 106.707031 255.914062 105.0625 C 252.152344 103.421875 248.132812 102.597656 243.847656 102.597656 Z M 293.160156 133.503906 C 293.160156 147.238281 288.34375 158.863281 278.71875 168.371094 C 268.972656 178 257.347656 182.8125 243.847656 182.8125 C 230.226562 182.8125 218.605469 178 208.980469 168.371094 C 199.351562 158.746094 194.539062 147.121094 194.539062 133.503906 C 194.539062 119.886719 199.351562 108.265625 208.980469 98.636719 C 218.605469 89.007812 230.226562 84.195312 243.847656 84.195312 C 257.347656 84.195312 268.972656 89.007812 278.71875 98.636719 C 283.53125 103.449219 287.125 108.761719 289.503906 114.574219 C 291.878906 120.386719 293.097656 126.695312 293.160156 133.503906 " fill-opacity="1" fill-rule="nonzero"/><g clip-path="url(#da823d73b9)"><path fill="#211d1d" d="M 59.644531 42.019531 C 62.285156 42.019531 64.472656 42.914062 66.203125 44.703125 C 67.933594 46.496094 68.800781 48.679688 68.800781 51.261719 C 68.800781 53.90625 67.933594 56.09375 66.203125 57.824219 C 64.472656 59.554688 62.285156 60.421875 59.644531 60.421875 C 52.363281 60.421875 48.726562 64.0625 48.726562 71.339844 L 48.726562 113.425781 C 48.726562 121.882812 46.789062 128.574219 42.914062 133.503906 C 46.789062 138.433594 48.726562 145.128906 48.726562 153.578125 L 48.726562 195.667969 C 48.726562 202.949219 52.363281 206.589844 59.644531 206.589844 C 62.285156 206.589844 64.472656 207.453125 66.203125 209.1875 C 67.933594 210.917969 68.800781 213.101562 68.800781 215.746094 C 68.800781 218.386719 67.933594 220.589844 66.203125 222.351562 C 64.472656 224.109375 62.285156 224.992188 59.644531 224.992188 C 40.097656 224.992188 30.324219 215.21875 30.324219 195.667969 L 30.324219 153.578125 C 30.324219 146.300781 26.710938 142.660156 19.492188 142.660156 C 16.851562 142.660156 14.664062 141.796875 12.929688 140.0625 C 11.199219 138.335938 10.335938 136.144531 10.335938 133.503906 C 10.335938 130.863281 11.199219 128.675781 12.929688 126.945312 C 14.664062 125.214844 16.851562 124.347656 19.492188 124.347656 C 26.710938 124.347656 30.324219 120.707031 30.324219 113.425781 L 30.324219 71.339844 C 30.324219 51.792969 40.097656 42.019531 59.644531 42.019531 " fill-opacity="1" fill-rule="nonzero"/></g><g clip-path="url(#69fad0bf0b)"><path fill="#211d1d" d="M 344.667969 71.339844 L 344.667969 113.425781 C 344.667969 120.707031 348.277344 124.347656 355.496094 124.347656 C 358.140625 124.347656 360.328125 125.214844 362.058594 126.945312 C 363.792969 128.675781 364.65625 130.863281 364.65625 133.503906 C 364.65625 136.144531 363.792969 138.335938 362.058594 140.0625 C 360.328125 141.796875 358.140625 142.660156 355.496094 142.660156 C 348.277344 142.660156 344.667969 146.300781 344.667969 153.578125 L 344.667969 195.667969 C 344.667969 215.21875 334.894531 224.992188 315.34375 224.992188 C 312.703125 224.992188 310.519531 224.109375 308.785156 222.351562 C 307.054688 220.589844 306.191406 218.386719 306.191406 215.746094 C 306.191406 213.101562 307.054688 210.917969 308.785156 209.1875 C 310.519531 207.453125 312.703125 206.589844 315.34375 206.589844 C 322.628906 206.589844 326.265625 202.949219 326.265625 195.667969 L 326.265625 153.578125 C 326.265625 145.128906 328.203125 138.433594 332.078125 133.503906 C 328.203125 128.574219 326.265625 121.882812 326.265625 113.425781 L 326.265625 71.339844 C 326.265625 64.0625 322.628906 60.421875 315.34375 60.421875 C 312.703125 60.421875 310.519531 59.554688 308.785156 57.824219 C 307.054688 56.09375 306.191406 53.90625 306.191406 51.261719 C 306.191406 48.679688 307.054688 46.496094 308.785156 44.703125 C 310.519531 42.914062 312.703125 42.019531 315.34375 42.019531 C 334.894531 42.019531 344.667969 51.792969 344.667969 71.339844 " fill-opacity="1" fill-rule="nonzero"/></g><path fill="#211d1d" d="M 215.058594 49.320312 C 215.058594 50.84375 214.761719 52.269531 214.175781 53.589844 C 213.585938 54.910156 212.8125 56.070312 211.84375 57.066406 C 210.875 58.066406 209.710938 58.84375 208.363281 59.398438 C 207.011719 59.960938 205.605469 60.234375 204.136719 60.234375 C 201.433594 60.234375 199.117188 59.296875 197.179688 57.417969 C 195.242188 55.542969 193.660156 53.238281 192.425781 50.507812 C 191.195312 47.777344 190.296875 44.960938 189.742188 42.054688 C 189.183594 39.148438 188.902344 36.433594 188.902344 33.910156 C 188.902344 23.519531 193.335938 13.011719 202.199219 2.386719 C 203.785156 0.800781 205.574219 0.0078125 207.570312 0.0078125 C 209.621094 0.0078125 211.386719 0.742188 212.855469 2.210938 C 214.320312 3.679688 215.058594 5.441406 215.058594 7.496094 C 215.058594 8.492188 214.847656 9.519531 214.441406 10.574219 C 211.796875 17.035156 210.476562 23.167969 210.476562 28.980469 C 210.476562 34.496094 211.679688 39.839844 214.085938 45.003906 C 214.734375 46.472656 215.058594 47.910156 215.058594 49.320312 Z M 186.085938 49.320312 C 186.085938 50.84375 185.792969 52.269531 185.207031 53.589844 C 184.617188 54.910156 183.839844 56.070312 182.871094 57.066406 C 181.90625 58.066406 180.746094 58.84375 179.394531 59.398438 C 178.042969 59.960938 176.636719 60.234375 175.167969 60.234375 C 172.46875 60.234375 170.148438 59.296875 168.210938 57.417969 C 166.277344 55.542969 164.691406 53.238281 163.457031 50.507812 C 162.222656 47.777344 161.328125 44.960938 160.769531 42.054688 C 160.214844 39.148438 159.933594 36.433594 159.933594 33.910156 C 159.933594 23.519531 164.367188 13.011719 173.230469 2.386719 C 174.816406 0.800781 176.605469 0.0078125 178.601562 0.0078125 C 180.65625 0.0078125 182.417969 0.742188 183.886719 2.210938 C 185.351562 3.679688 186.085938 5.441406 186.085938 7.496094 C 186.085938 8.492188 185.878906 9.519531 185.46875 10.574219 C 182.828125 17.035156 181.507812 23.167969 181.507812 28.980469 C 181.507812 34.496094 182.710938 39.839844 185.117188 45.003906 C 185.761719 46.472656 186.085938 47.910156 186.085938 49.320312 " fill-opacity="1" fill-rule="nonzero"/><g fill="#211d1d" fill-opacity="1"><g transform="translate(40.344582, 112.78844)"><g><path d="M 2.59375 -0.578125 C 2.726562 -0.578125 2.863281 -0.585938 3 -0.609375 C 3.132812 -0.628906 3.242188 -0.648438 3.328125 -0.671875 L 3.328125 -0.046875 C 3.234375 -0.00390625 3.097656 0.0234375 2.921875 0.046875 C 2.753906 0.078125 2.601562 0.09375 2.46875 0.09375 C 1.4375 0.09375 0.921875 -0.445312 0.921875 -1.53125 L 0.921875 -4.71875 L 0.15625 -4.71875 L 0.15625 -5.109375 L 0.921875 -5.453125 L 1.265625 -6.59375 L 1.734375 -6.59375 L 1.734375 -5.359375 L 3.28125 -5.359375 L 3.28125 -4.71875 L 1.734375 -4.71875 L 1.734375 -1.578125 C 1.734375 -1.253906 1.804688 -1.003906 1.953125 -0.828125 C 2.109375 -0.660156 2.320312 -0.578125 2.59375 -0.578125 Z M 2.59375 -0.578125 "/></g></g></g></svg>