<svg xmlns="http://www.w3.org/2000/svg" width="933.333" height="933.333" preserveAspectRatio="xMidYMid meet" version="1.0" viewBox="0 0 700 700"><metadata>Created by potrace 1.14, written by Peter Selinger 2001-2017</metadata><g fill="#000" stroke="none"><path d="M2649 6996 c-2 -2 -29 -7 -60 -10 -64 -7 -229 -50 -274 -70 -115 -53 -158 -74 -215 -110 -187 -115 -340 -279 -452 -483 -48 -88 -97 -226 -122 -350 l-24 -118 -1 -1554 c-1 -855 -3 -1556 -5 -1558 -2 -2 -227 -4 -500 -4 l-496 0 0 -684 0 -685 -250 0 -250 0 0 -685 0 -685 3500 0 3500 0 0 685 0 685 -250 0 -250 0 0 685 0 684 -1692 0 c-931 0 -1719 1 -1750 1 l-58 0 0 1315 c0 1245 1 1315 18 1316 215 10 365 47 542 131 172 83 372 254 480 411 l54 77 448 0 448 0 0 205 0 205 -77 0 c-43 1 -210 1 -372 0 l-293 0 5 22 c13 53 19 162 20 361 l1 212 -810 2 c-446 2 -813 1 -815 -1z" transform="translate(0.000000,700.000000) scale(0.100000,-0.100000)"/></g></svg>